<?xml version="1.0" encoding="utf-8"?>
<svg version="1.1" xmlns="http://www.w3.org/2000/svg" width="1200" height="1200" xmlns:bx="https://boxy-svg.com">
  <defs>
    <bx:export>
      <bx:file format="svg" href="#object-0"/>
      <bx:file format="png" width="1200" height="1200"/>
    </bx:export>
  </defs>
  <path d="M 211.578 220.817 C 607.578 220.817 1003.58 220.817 1411.58 220.817 C 1411.58 337.248 1411.58 453.679 1411.58 573.639 C 1015.58 573.639 619.578 573.639 211.578 573.639 C 211.578 457.207 211.578 340.776 211.578 220.817 Z" style="fill: rgb(28, 36, 52);" id="object-0"/>
  <path d="M 542.418 289.279 C 544.582 290.243 546.753 291.19 548.926 292.133 C 551.223 293.129 553.519 294.127 555.814 295.129 C 563.16 298.339 570.553 301.429 577.96 304.497 C 581.671 306.035 585.379 307.58 589.088 309.124 C 590.646 309.772 592.205 310.421 593.763 311.069 C 602.262 314.606 610.759 318.147 619.253 321.695 C 621.17 322.496 623.087 323.295 625.005 324.094 C 627.687 325.211 630.368 326.331 633.049 327.452 C 633.844 327.783 634.639 328.113 635.458 328.454 C 646.842 333.222 646.842 333.222 648.775 335.155 C 649.338 337.405 649.338 337.405 648.775 340.155 C 644.994 343.586 640.184 345.465 635.486 347.307 C 634.6 347.657 633.713 348.006 632.8 348.366 C 632.132 348.626 631.464 348.887 630.775 349.155 C 630.23 361.402 629.859 373.648 629.65 385.905 C 629.635 386.801 629.619 387.698 629.603 388.621 C 629.193 415.587 630.102 438.275 647.123 460.521 C 648.952 463.438 649.401 464.785 648.775 468.155 C 647.215 470.16 646.325 471.049 643.802 471.536 C 642.68 471.54 642.68 471.54 641.535 471.543 C 640.684 471.553 639.833 471.562 638.956 471.572 C 638.04 471.566 637.125 471.56 636.181 471.554 C 634.767 471.558 634.767 471.558 633.324 471.562 C 631.33 471.564 629.336 471.559 627.342 471.546 C 624.287 471.53 621.233 471.546 618.177 471.565 C 616.241 471.563 614.305 471.559 612.369 471.554 C 611.453 471.56 610.538 471.566 609.594 471.572 C 608.743 471.562 607.892 471.553 607.015 471.543 C 605.893 471.54 605.893 471.54 604.748 471.536 C 602.205 471.045 601.297 470.226 599.775 468.155 C 599.912 462.419 601.985 458.052 604.556 453.069 C 604.93 452.327 605.303 451.584 605.688 450.819 C 606.875 448.468 608.075 446.124 609.275 443.78 C 610.082 442.183 610.888 440.585 611.693 438.987 C 617.579 427.351 617.579 427.351 618.775 426.155 C 618.899 423.886 618.953 421.613 618.98 419.34 C 618.99 418.628 619 417.916 619.01 417.182 C 619.042 414.818 619.067 412.453 619.092 410.089 C 619.112 408.453 619.133 406.818 619.155 405.183 C 619.21 400.871 619.259 396.559 619.307 392.246 C 619.358 387.849 619.413 383.452 619.469 379.055 C 619.576 370.422 619.678 361.789 619.775 353.155 C 618.623 353.746 617.471 354.337 616.284 354.945 C 612.143 357.014 607.937 358.801 603.638 360.511 C 602.885 360.813 602.132 361.116 601.357 361.428 C 599.758 362.071 598.16 362.712 596.56 363.352 C 592.378 365.027 588.202 366.714 584.025 368.401 C 583.209 368.731 582.393 369.061 581.552 369.4 C 575.535 371.836 569.546 374.33 563.588 376.905 C 562.808 377.24 562.029 377.576 561.225 377.921 C 557.639 379.468 554.059 381.029 550.488 382.611 C 546.943 384.18 543.391 385.731 539.838 387.28 C 538.728 387.779 537.619 388.277 536.476 388.791 C 535.431 389.244 534.386 389.696 533.31 390.163 C 532.386 390.572 531.462 390.98 530.51 391.402 C 524.649 393.016 519.474 390.427 514.08 388.198 C 513.343 387.899 512.607 387.6 511.848 387.292 C 509.446 386.316 507.048 385.329 504.65 384.343 C 502.974 383.658 501.297 382.973 499.621 382.289 C 488.67 377.807 477.774 373.21 466.914 368.514 C 458.545 364.898 450.14 361.38 441.713 357.905 C 440.504 357.406 439.294 356.907 438.049 356.393 C 435.715 355.43 433.382 354.468 431.048 353.505 C 426.287 351.541 421.528 349.574 416.775 347.593 C 415.646 347.127 415.646 347.127 414.494 346.652 C 410.739 345.081 407.081 343.548 403.775 341.155 C 402.963 337.968 402.963 337.968 402.775 335.155 C 408.289 331.439 413.789 328.733 419.994 326.378 C 421.773 325.684 423.552 324.989 425.33 324.292 C 426.234 323.94 427.138 323.587 428.069 323.224 C 432.36 321.529 436.615 319.75 440.869 317.964 C 441.71 317.611 442.551 317.258 443.417 316.895 C 445.148 316.169 446.878 315.442 448.607 314.715 C 452.307 313.159 456.008 311.606 459.709 310.054 C 461.607 309.258 463.504 308.462 465.402 307.666 C 474.832 303.709 484.271 299.773 493.713 295.843 C 496.958 294.491 496.958 294.491 500.203 293.139 C 501.54 292.583 502.879 292.028 504.218 291.476 C 507.218 290.236 510.196 288.965 513.155 287.63 C 524.866 282.409 531.042 284.207 542.418 289.279 Z" fill="#02989E"/>
  <path d="M 1122.78 275.155 C 1122.78 276.645 1122.78 276.645 1122.79 278.165 C 1122.82 287.524 1122.88 296.882 1122.96 306.24 C 1123 311.051 1123.03 315.862 1123.05 320.674 C 1123.06 325.316 1123.1 329.959 1123.14 334.601 C 1123.16 336.373 1123.17 338.145 1123.17 339.916 C 1123.17 342.397 1123.2 344.877 1123.23 347.357 C 1123.22 348.091 1123.22 348.825 1123.21 349.581 C 1123.28 352.984 1123.53 354.838 1125.62 357.58 C 1127.78 359.326 1127.78 359.326 1130.78 360.155 C 1130.78 360.815 1130.78 361.475 1130.78 362.155 C 1124.84 362.155 1118.89 362.155 1112.78 362.155 C 1112.28 358.69 1112.28 358.69 1111.78 355.155 C 1111.05 356.104 1110.33 357.053 1109.59 358.03 C 1107.35 360.969 1105.3 362.056 1101.78 363.155 C 1094.69 364.066 1088.59 363.468 1082.78 359.155 C 1077.16 354.228 1074.41 348.168 1073.47 340.791 C 1073.34 338.404 1073.31 336.046 1073.34 333.655 C 1073.35 332.821 1073.35 331.986 1073.36 331.127 C 1073.53 325.073 1074.18 320.185 1077.78 315.155 C 1078.28 314.441 1078.79 313.727 1079.32 312.991 C 1083.76 307.407 1088.31 303.841 1095.45 302.745 C 1102.42 302.369 1106.13 304.259 1111.78 308.155 C 1111.8 304.238 1111.82 300.322 1111.84 296.405 C 1111.85 294.738 1111.85 294.738 1111.86 293.038 C 1111.87 291.968 1111.87 290.898 1111.87 289.796 C 1111.88 288.811 1111.88 287.827 1111.89 286.812 C 1111.79 284.426 1111.46 282.433 1110.78 280.155 C 1108.46 279.495 1106.15 278.835 1103.78 278.155 C 1103.78 277.495 1103.78 276.835 1103.78 276.155 C 1106 275.986 1108.23 275.82 1110.46 275.655 C 1111.7 275.562 1112.94 275.469 1114.22 275.374 C 1117.09 275.197 1119.9 275.138 1122.78 275.155 Z" style="fill: rgb(255, 255, 255);"/>
  <path d="M 819.742 411.702 C 825.18 415.051 829.613 420.369 831.566 426.507 C 833.347 437.13 833.328 449.999 827.593 459.397 C 822.713 465.682 816.835 468.422 809.043 469.503 C 801.703 469.87 795.961 468.46 790 464.093 C 782.684 457.117 780.87 448.448 780.562 438.655 C 780.749 430.243 782.658 423.811 787.125 416.718 C 796.566 408.098 808.049 406.363 819.742 411.702 Z" style="fill: rgb(28, 36, 52);"/>
  <path d="M 819.517 305.764 C 824.955 309.114 829.389 314.431 831.342 320.569 C 833.123 331.192 833.103 344.062 827.369 353.46 C 822.489 359.744 816.611 362.484 808.818 363.565 C 801.479 363.933 795.737 362.523 789.775 358.155 C 782.459 351.179 780.646 342.511 780.338 332.718 C 780.525 324.305 782.434 317.874 786.9 310.78 C 796.341 302.16 807.824 300.425 819.517 305.764 Z" style="fill: rgb(28, 36, 52);"/>
  <path d="M 1003.23 306.991 C 1008.75 310.962 1012.46 315.969 1014.39 322.542 C 1014.83 325.989 1014.87 329.383 1014.83 332.855 C 1014.82 333.789 1014.8 334.724 1014.79 335.687 C 1014.55 345.228 1013.06 351.327 1006.01 358.042 C 999.783 363.412 993.56 363.995 985.582 363.859 C 978.619 363.169 973.844 359.865 969.387 354.542 C 964.648 347.434 964.161 341.673 964.075 333.355 C 964.046 332.446 964.017 331.538 963.987 330.603 C 963.917 323.076 965.62 317.347 970.063 311.237 C 979.496 302.187 991.574 300.273 1003.23 306.991 Z" style="fill: rgb(28, 36, 52);"/>
  <path d="M 430.775 381.155 C 433.31 382.122 435.8 383.123 438.295 384.182 C 439.384 384.639 439.384 384.639 440.496 385.104 C 442.862 386.096 445.225 387.094 447.588 388.093 C 449.234 388.784 450.881 389.476 452.528 390.167 C 455.797 391.538 459.064 392.912 462.331 394.287 C 468.779 397 475.241 399.679 481.705 402.351 C 486.868 404.495 492.008 406.684 497.131 408.922 C 500.156 410.243 503.185 411.554 506.214 412.864 C 507.702 413.512 509.187 414.164 510.671 414.821 C 512.746 415.74 514.828 416.642 516.912 417.542 C 518.115 418.07 519.319 418.598 520.559 419.142 C 526.397 420.981 530.784 418.466 536.189 416.163 C 536.909 415.861 537.628 415.559 538.37 415.247 C 539.914 414.599 541.457 413.948 542.999 413.295 C 545.417 412.273 547.837 411.258 550.258 410.245 C 556.512 407.627 562.764 405.003 569.011 402.369 C 572.72 400.807 576.434 399.262 580.15 397.718 C 581.247 397.252 582.343 396.786 583.473 396.306 C 584.488 395.886 585.503 395.466 586.549 395.034 C 587.419 394.669 588.29 394.303 589.187 393.927 C 592.202 393.028 594.645 392.884 597.775 393.155 C 599.775 395.155 599.775 395.155 599.9 398.03 C 598.775 401.155 598.775 401.155 595.521 403.011 C 589.675 405.744 583.686 408.153 577.713 410.593 C 575.142 411.648 572.572 412.706 570.002 413.764 C 569.339 414.037 568.675 414.31 567.992 414.591 C 560.87 417.522 553.765 420.493 546.663 423.472 C 545.282 424.051 543.901 424.63 542.52 425.209 C 540.591 426.017 538.661 426.826 536.732 427.636 C 535.628 428.099 534.525 428.562 533.388 429.039 C 531.832 429.703 530.288 430.399 528.775 431.155 C 523.364 431.69 519.559 430.134 514.72 428.007 C 513.951 427.679 513.182 427.351 512.389 427.013 C 509.888 425.945 507.394 424.863 504.9 423.78 C 503.161 423.035 501.422 422.291 499.682 421.548 C 496.248 420.081 492.816 418.609 489.386 417.133 C 483.825 414.743 478.242 412.409 472.65 410.093 C 470.822 409.331 468.994 408.569 467.166 407.807 C 462.74 405.967 458.309 404.138 453.877 402.312 C 450.547 400.938 447.218 399.561 443.889 398.183 C 442.238 397.501 440.587 396.821 438.935 396.143 C 436.622 395.193 434.312 394.237 432.002 393.28 C 430.95 392.851 430.95 392.851 429.878 392.413 C 427.058 391.239 424.957 390.337 422.775 388.155 C 423.025 384.593 423.025 384.593 423.775 381.155 C 426.551 379.767 427.776 380.363 430.775 381.155 Z" fill="#069AA0"/>
  <path d="M 1010.66 410.816 C 1015.34 413.73 1019.17 418.562 1020.45 423.93 C 1020.45 426.9 1020.45 429.87 1020.45 432.93 C 1008.9 432.93 997.35 432.93 985.45 432.93 C 985.824 446.774 985.824 446.774 991.977 458.617 C 996.327 462.361 999.41 463.34 1005 463.277 C 1009.19 462.683 1012.29 460.685 1015.45 457.93 C 1017.29 455.277 1017.29 455.277 1018.45 452.93 C 1019.11 452.93 1019.77 452.93 1020.45 452.93 C 1019.64 458.798 1016.78 462.048 1012.45 465.93 C 1006.78 469.533 999.962 469.872 993.45 468.93 C 985.048 466.319 980.433 461.602 976.422 453.977 C 972.668 444.91 973.06 433.436 976.512 424.367 C 979.661 417.838 983.506 413.685 989.7 409.992 C 996.648 408.023 1003.95 407.907 1010.66 410.816 Z" style="fill: rgb(255, 255, 255);"/>
  <path d="M 954.213 409.78 C 958.391 413.653 960.955 416.956 961.273 422.736 C 961.294 424.504 961.295 426.273 961.279 428.042 C 961.288 428.981 961.298 429.919 961.308 430.887 C 961.336 433.872 961.339 436.857 961.338 439.843 C 961.341 442.839 961.351 445.834 961.378 448.831 C 961.395 450.691 961.398 452.552 961.385 454.413 C 961.392 455.254 961.399 456.096 961.406 456.962 C 961.405 457.702 961.404 458.441 961.403 459.202 C 961.881 461.712 962.798 462.586 964.775 464.155 C 966.878 464.87 966.878 464.87 968.775 465.155 C 968.775 465.815 968.775 466.475 968.775 467.155 C 960.525 467.155 952.275 467.155 943.775 467.155 C 943.775 466.495 943.775 465.835 943.775 465.155 C 944.58 464.866 945.384 464.578 946.213 464.28 C 948.908 463.422 948.908 463.422 949.775 461.155 C 949.874 459.788 949.913 458.415 949.92 457.044 C 949.927 456.196 949.933 455.349 949.94 454.475 C 949.941 453.557 949.942 452.64 949.943 451.694 C 949.946 450.752 949.95 449.81 949.953 448.839 C 949.958 446.844 949.961 444.848 949.96 442.852 C 949.963 439.799 949.981 436.747 950 433.694 C 950.003 431.757 950.005 429.819 950.006 427.882 C 950.013 426.968 950.02 426.054 950.027 425.113 C 950.023 423.832 950.023 423.832 950.018 422.525 C 950.019 421.776 950.021 421.027 950.022 420.255 C 949.736 417.824 949.062 416.23 947.775 414.155 C 944.554 412.545 941.268 412.699 937.775 413.155 C 932.348 415.764 930.339 418.932 927.775 424.155 C 926.579 427.743 926.594 431.043 926.572 434.78 C 926.563 435.895 926.563 435.895 926.555 437.033 C 926.545 438.603 926.539 440.173 926.535 441.743 C 926.525 444.146 926.494 446.549 926.463 448.952 C 926.456 450.478 926.451 452.004 926.447 453.53 C 926.435 454.249 926.422 454.968 926.41 455.708 C 926.418 459.651 926.418 459.651 928.159 463.089 C 930.007 464.308 931.602 464.78 933.775 465.155 C 933.775 465.815 933.775 466.475 933.775 467.155 C 925.195 467.155 916.615 467.155 907.775 467.155 C 907.775 466.495 907.775 465.835 907.775 465.155 C 908.745 464.866 909.714 464.578 910.713 464.28 C 913.882 463.513 913.882 463.513 914.775 461.155 C 914.88 459.721 914.924 458.283 914.936 456.845 C 914.946 455.954 914.955 455.063 914.965 454.144 C 914.972 452.698 914.972 452.698 914.978 451.221 C 914.984 450.233 914.99 449.244 914.996 448.225 C 915.005 446.131 915.012 444.037 915.015 441.943 C 915.025 438.734 915.056 435.526 915.088 432.317 C 915.094 430.285 915.099 428.253 915.103 426.221 C 915.116 425.259 915.128 424.296 915.141 423.305 C 915.138 422.41 915.135 421.516 915.132 420.595 C 915.135 419.808 915.139 419.021 915.143 418.211 C 914.68 415.623 913.82 414.758 911.775 413.155 C 909.672 412.441 909.672 412.441 907.775 412.155 C 907.775 411.165 907.775 410.175 907.775 409.155 C 913.715 409.155 919.655 409.155 925.775 409.155 C 926.105 412.785 926.435 416.415 926.775 420.155 C 927.311 419.268 927.848 418.381 928.4 417.468 C 934.335 408.555 944.268 405.079 954.213 409.78 Z" style="fill: rgb(255, 255, 255);"/>
  <path d="M 887.213 409.78 C 891.391 413.653 893.955 416.956 894.273 422.736 C 894.294 424.504 894.295 426.273 894.279 428.042 C 894.288 428.981 894.298 429.919 894.308 430.887 C 894.336 433.872 894.339 436.857 894.338 439.843 C 894.341 442.839 894.351 445.834 894.378 448.831 C 894.395 450.691 894.398 452.552 894.385 454.413 C 894.392 455.254 894.399 456.096 894.406 456.962 C 894.405 457.702 894.404 458.441 894.403 459.202 C 894.881 461.712 895.798 462.586 897.775 464.155 C 899.878 464.87 899.878 464.87 901.775 465.155 C 901.775 465.815 901.775 466.475 901.775 467.155 C 893.525 467.155 885.275 467.155 876.775 467.155 C 876.775 466.495 876.775 465.835 876.775 465.155 C 877.58 464.866 878.384 464.578 879.213 464.28 C 881.908 463.422 881.908 463.422 882.775 461.155 C 882.874 459.788 882.913 458.415 882.92 457.044 C 882.927 456.196 882.933 455.349 882.94 454.475 C 882.941 453.557 882.942 452.64 882.943 451.694 C 882.946 450.752 882.95 449.81 882.953 448.839 C 882.958 446.844 882.961 444.848 882.96 442.852 C 882.963 439.799 882.981 436.747 883 433.694 C 883.003 431.757 883.005 429.819 883.006 427.882 C 883.013 426.968 883.02 426.054 883.027 425.113 C 883.023 423.832 883.023 423.832 883.018 422.525 C 883.019 421.776 883.021 421.027 883.022 420.255 C 882.736 417.824 882.062 416.23 880.775 414.155 C 877.554 412.545 874.268 412.699 870.775 413.155 C 865.348 415.764 863.339 418.932 860.775 424.155 C 859.579 427.743 859.594 431.043 859.572 434.78 C 859.563 435.895 859.563 435.895 859.555 437.033 C 859.545 438.603 859.539 440.173 859.535 441.743 C 859.525 444.146 859.494 446.549 859.463 448.952 C 859.456 450.478 859.451 452.004 859.447 453.53 C 859.435 454.249 859.422 454.968 859.41 455.708 C 859.418 459.651 859.418 459.651 861.159 463.089 C 863.007 464.308 864.602 464.78 866.775 465.155 C 866.775 465.815 866.775 466.475 866.775 467.155 C 858.195 467.155 849.615 467.155 840.775 467.155 C 840.775 466.495 840.775 465.835 840.775 465.155 C 841.745 464.866 842.714 464.578 843.713 464.28 C 846.882 463.513 846.882 463.513 847.775 461.155 C 847.88 459.721 847.924 458.283 847.936 456.845 C 847.946 455.954 847.955 455.063 847.965 454.144 C 847.972 452.698 847.972 452.698 847.978 451.221 C 847.984 450.233 847.99 449.244 847.996 448.225 C 848.005 446.131 848.012 444.037 848.015 441.943 C 848.025 438.734 848.056 435.526 848.088 432.317 C 848.094 430.285 848.099 428.253 848.103 426.221 C 848.116 425.259 848.128 424.296 848.141 423.305 C 848.138 422.41 848.135 421.516 848.132 420.595 C 848.135 419.808 848.139 419.021 848.143 418.211 C 847.68 415.623 846.82 414.758 844.775 413.155 C 842.672 412.441 842.672 412.441 840.775 412.155 C 840.775 411.165 840.775 410.175 840.775 409.155 C 846.715 409.155 852.655 409.155 858.775 409.155 C 859.105 412.785 859.435 416.415 859.775 420.155 C 860.311 419.268 860.848 418.381 861.4 417.468 C 867.335 408.555 877.268 405.079 887.213 409.78 Z" style="fill: rgb(255, 255, 255);"/>
  <path d="M 887.213 304.78 C 891.391 308.653 893.955 311.956 894.273 317.736 C 894.294 319.504 894.295 321.273 894.279 323.042 C 894.288 323.981 894.298 324.919 894.308 325.887 C 894.336 328.872 894.339 331.857 894.338 334.843 C 894.341 337.839 894.351 340.834 894.378 343.831 C 894.395 345.691 894.398 347.552 894.385 349.413 C 894.392 350.254 894.399 351.096 894.406 351.962 C 894.405 352.702 894.404 353.441 894.403 354.202 C 894.881 356.712 895.798 357.586 897.775 359.155 C 899.878 359.87 899.878 359.87 901.775 360.155 C 901.775 360.815 901.775 361.475 901.775 362.155 C 893.525 362.155 885.275 362.155 876.775 362.155 C 876.775 361.495 876.775 360.835 876.775 360.155 C 877.58 359.866 878.384 359.578 879.213 359.28 C 881.908 358.422 881.908 358.422 882.775 356.155 C 882.874 354.788 882.913 353.415 882.92 352.044 C 882.927 351.196 882.933 350.349 882.94 349.475 C 882.941 348.557 882.942 347.64 882.943 346.694 C 882.946 345.752 882.95 344.81 882.953 343.839 C 882.958 341.844 882.961 339.848 882.96 337.852 C 882.963 334.799 882.981 331.747 883 328.694 C 883.003 326.757 883.005 324.819 883.006 322.882 C 883.013 321.968 883.02 321.054 883.027 320.113 C 883.023 318.832 883.023 318.832 883.018 317.525 C 883.019 316.776 883.021 316.027 883.022 315.255 C 882.736 312.824 882.062 311.23 880.775 309.155 C 877.554 307.545 874.268 307.699 870.775 308.155 C 865.348 310.764 863.339 313.932 860.775 319.155 C 859.579 322.743 859.594 326.043 859.572 329.78 C 859.563 330.895 859.563 330.895 859.555 332.033 C 859.545 333.603 859.539 335.173 859.535 336.743 C 859.525 339.146 859.494 341.549 859.463 343.952 C 859.456 345.478 859.451 347.004 859.447 348.53 C 859.435 349.249 859.422 349.968 859.41 350.708 C 859.418 354.651 859.418 354.651 861.159 358.089 C 863.007 359.308 864.602 359.78 866.775 360.155 C 866.775 360.815 866.775 361.475 866.775 362.155 C 858.195 362.155 849.615 362.155 840.775 362.155 C 840.775 361.495 840.775 360.835 840.775 360.155 C 841.745 359.866 842.714 359.578 843.713 359.28 C 846.882 358.513 846.882 358.513 847.775 356.155 C 847.88 354.721 847.924 353.283 847.936 351.845 C 847.946 350.954 847.955 350.063 847.965 349.144 C 847.972 347.698 847.972 347.698 847.978 346.221 C 847.984 345.233 847.99 344.244 847.996 343.225 C 848.005 341.131 848.012 339.037 848.015 336.943 C 848.025 333.734 848.056 330.526 848.088 327.317 C 848.094 325.285 848.099 323.253 848.103 321.221 C 848.116 320.259 848.128 319.296 848.141 318.305 C 848.138 317.41 848.135 316.516 848.132 315.595 C 848.135 314.808 848.139 314.021 848.143 313.211 C 847.68 310.623 846.82 309.758 844.775 308.155 C 842.672 307.441 842.672 307.441 840.775 307.155 C 840.775 306.165 840.775 305.175 840.775 304.155 C 846.715 304.155 852.655 304.155 858.775 304.155 C 859.105 307.785 859.435 311.415 859.775 315.155 C 860.311 314.268 860.848 313.381 861.4 312.468 C 867.335 303.555 877.268 300.079 887.213 304.78 Z" style="fill: rgb(255, 255, 255);"/>
  <path d="M 1105.78 306.155 C 1109.07 308.256 1110.61 309.905 1112.78 313.155 C 1112.99 315.747 1113.1 318.229 1113.11 320.823 C 1113.12 321.577 1113.12 322.33 1113.13 323.107 C 1113.14 324.703 1113.15 326.299 1113.15 327.896 C 1113.15 330.317 1113.19 332.736 1113.22 335.157 C 1113.29 344.048 1113.21 351.058 1107.09 358.093 C 1103.39 359.793 1099.84 360.367 1095.78 360.155 C 1090.76 357.979 1088.78 355.012 1086.54 350.253 C 1084.43 344.449 1084.52 338.563 1084.46 332.468 C 1084.43 331.525 1084.4 330.582 1084.38 329.61 C 1084.31 322.422 1085.3 315.019 1090.29 309.465 C 1095.59 304.941 1099.16 304.655 1105.78 306.155 Z" style="fill: rgb(28, 36, 52);"/>
  <path d="M 819.517 410.764 C 824.955 414.114 829.389 419.431 831.342 425.569 C 833.123 436.192 833.103 449.062 827.369 458.46 C 822.489 464.744 816.611 467.484 808.818 468.565 C 801.479 468.933 795.737 467.523 789.775 463.155 C 782.459 456.179 780.646 447.511 780.338 437.718 C 780.525 429.305 782.434 422.874 786.9 415.78 C 796.341 407.16 807.824 405.425 819.517 410.764 Z M 797.213 414.343 C 792.078 421.69 791.595 429.316 791.588 438.03 C 791.575 438.795 791.563 439.559 791.551 440.346 C 791.528 449.025 793.609 456.143 798.275 463.53 C 802.475 466.26 806.936 465.975 811.775 465.155 C 816.78 461.715 818.78 456.839 820.338 451.073 C 820.992 446.707 821 442.377 821.025 437.968 C 821.046 437.072 821.066 436.177 821.088 435.255 C 821.126 428.564 820.663 421.012 816.508 415.463 C 815.04 413.933 815.04 413.933 812.775 412.155 C 812.445 411.825 812.115 411.495 811.775 411.155 C 806.143 410.311 801.186 409.786 797.213 414.343 Z" style="fill: rgb(255, 255, 255);"/>
  <path d="M 819.192 304.989 C 824.63 308.338 829.063 313.655 831.016 319.794 C 832.797 330.417 832.778 343.286 827.044 352.684 C 822.163 358.969 816.285 361.709 808.493 362.79 C 801.153 363.157 795.411 361.747 789.45 357.38 C 782.134 350.404 780.32 341.735 780.012 331.942 C 780.199 323.53 782.108 317.098 786.575 310.005 C 796.016 301.384 807.499 299.65 819.192 304.989 Z M 796.887 308.567 C 791.753 315.915 791.27 323.541 791.262 332.255 C 791.25 333.019 791.238 333.783 791.225 334.571 C 791.203 343.25 793.284 350.367 797.95 357.755 C 802.149 360.484 806.611 360.199 811.45 359.38 C 816.454 355.939 818.455 351.063 820.012 345.297 C 820.667 340.931 820.675 336.602 820.7 332.192 C 820.72 331.297 820.741 330.402 820.762 329.479 C 820.801 322.788 820.337 315.236 816.183 309.687 C 814.714 308.157 814.714 308.157 812.45 306.38 C 812.12 306.05 811.79 305.72 811.45 305.38 C 805.818 304.535 800.861 304.011 796.887 308.567 Z" style="fill: rgb(255, 255, 255);"/>
  <path d="M 1003.62 306.604 C 1009.14 310.575 1012.85 315.582 1014.77 322.155 C 1015.21 325.602 1015.25 328.996 1015.21 332.468 C 1015.2 333.402 1015.19 334.337 1015.18 335.3 C 1014.94 344.841 1013.45 350.94 1006.4 357.655 C 1000.17 363.025 993.948 363.608 985.97 363.471 C 979.007 362.782 974.232 359.478 969.775 354.155 C 965.036 347.047 964.549 341.286 964.463 332.968 C 964.434 332.059 964.405 331.151 964.375 330.216 C 964.305 322.689 966.008 316.96 970.451 310.85 C 979.884 301.8 991.962 299.886 1003.62 306.604 Z M 980.775 309.155 C 975.441 316.606 975.533 323.385 975.463 332.218 C 975.434 333.408 975.405 334.598 975.375 335.825 C 975.321 343.3 975.995 349.583 979.775 356.155 C 982.841 359.148 985.247 360.981 989.525 361.468 C 993.76 361.06 995.566 359.945 998.775 357.155 C 1003.73 349.477 1003.98 342.397 1004.02 333.468 C 1004.05 332.416 1004.07 331.365 1004.09 330.282 C 1004.13 322.418 1003.22 315.864 998.838 309.218 C 995.884 306.264 994.042 305.32 989.9 304.78 C 985.811 305.271 983.912 306.496 980.775 309.155 Z" style="fill: rgb(255, 255, 255);"/>
  <path d="M 756.775 391.155 C 757.464 391.695 758.152 392.235 758.861 392.792 C 760.791 394.445 760.791 394.445 763.775 394.155 C 764.435 392.175 765.095 390.195 765.775 388.155 C 766.435 388.155 767.095 388.155 767.775 388.155 C 767.775 396.735 767.775 405.315 767.775 414.155 C 766.785 414.155 765.795 414.155 764.775 414.155 C 764.537 412.978 764.537 412.978 764.295 411.776 C 762.332 402.525 762.332 402.525 756.775 395.155 C 749.832 391.17 742.672 388.954 734.685 390.581 C 727.698 392.767 724.036 397.648 720.525 403.843 C 714.59 416.825 714.791 435.122 719.584 448.382 C 722.274 454.644 725.09 459.866 731.201 463.311 C 737.88 465.501 746.506 465.511 753.025 462.718 C 753.933 462.202 754.84 461.686 755.775 461.155 C 756.765 460.825 757.755 460.495 758.775 460.155 C 762.406 454.182 764.044 447.032 764.775 440.155 C 765.765 440.155 766.755 440.155 767.775 440.155 C 767.775 449.065 767.775 457.975 767.775 467.155 C 767.115 467.155 766.455 467.155 765.775 467.155 C 765.115 465.175 764.455 463.195 763.775 461.155 C 760.455 461.831 757.769 463.085 754.775 464.655 C 746.509 468.99 737.478 469.746 728.4 467.214 C 718.37 463.214 712.392 458.049 707.775 448.155 C 705.196 441.311 704.252 435.009 704.338 427.718 C 704.346 426.797 704.354 425.877 704.363 424.929 C 704.644 413.616 708.188 404.668 715.775 396.155 C 718.599 393.748 721.501 391.89 724.775 390.155 C 725.389 389.816 726.002 389.477 726.635 389.128 C 736.129 384.725 747.845 386.155 756.775 391.155 Z" style="fill: rgb(255, 255, 255);"/>
  <path d="M 756.775 286.155 C 757.464 286.695 758.152 287.235 758.861 287.792 C 760.791 289.445 760.791 289.445 763.775 289.155 C 764.435 287.175 765.095 285.195 765.775 283.155 C 766.435 283.155 767.095 283.155 767.775 283.155 C 767.775 291.735 767.775 300.315 767.775 309.155 C 766.785 309.155 765.795 309.155 764.775 309.155 C 764.537 307.978 764.537 307.978 764.295 306.776 C 762.332 297.525 762.332 297.525 756.775 290.155 C 749.832 286.17 742.672 283.954 734.685 285.581 C 727.698 287.767 724.036 292.648 720.525 298.843 C 714.59 311.825 714.791 330.122 719.584 343.382 C 722.274 349.644 725.09 354.866 731.201 358.311 C 737.88 360.501 746.506 360.511 753.025 357.718 C 753.933 357.202 754.84 356.686 755.775 356.155 C 756.765 355.825 757.755 355.495 758.775 355.155 C 762.406 349.182 764.044 342.032 764.775 335.155 C 765.765 335.155 766.755 335.155 767.775 335.155 C 767.775 344.065 767.775 352.975 767.775 362.155 C 767.115 362.155 766.455 362.155 765.775 362.155 C 765.115 360.175 764.455 358.195 763.775 356.155 C 760.455 356.831 757.769 358.085 754.775 359.655 C 746.509 363.99 737.478 364.746 728.4 362.214 C 718.37 358.214 712.392 353.049 707.775 343.155 C 705.196 336.311 704.252 330.009 704.338 322.718 C 704.346 321.797 704.354 320.877 704.363 319.929 C 704.644 308.616 708.188 299.668 715.775 291.155 C 718.599 288.748 721.501 286.89 724.775 285.155 C 725.389 284.816 726.002 284.477 726.635 284.128 C 736.129 279.725 747.845 281.155 756.775 286.155 Z" style="fill: rgb(255, 255, 255);"/>
  <path d="M 1042.78 303.155 C 1043.11 306.455 1043.43 309.755 1043.78 313.155 C 1044.23 312.601 1044.69 312.046 1045.17 311.475 C 1045.78 310.751 1046.39 310.026 1047.03 309.28 C 1047.63 308.561 1048.23 307.841 1048.85 307.1 C 1051.86 304.055 1053.95 303.23 1058.21 302.843 C 1062.96 303.259 1065.45 304.832 1068.78 308.155 C 1069.13 311.404 1069.05 313.534 1067.71 316.53 C 1065.78 318.155 1065.78 318.155 1062.21 318.53 C 1058.78 318.155 1058.78 318.155 1056.78 316.155 C 1056.53 312.655 1056.53 312.655 1056.78 309.155 C 1057.43 308.495 1058.1 307.835 1058.78 307.155 C 1055.14 306.621 1053.84 307.111 1050.71 309.155 C 1045.4 314.144 1043.61 318.998 1043.32 326.213 C 1043.26 329.326 1043.27 332.434 1043.31 335.547 C 1043.34 337.979 1043.33 340.409 1043.32 342.841 C 1043.32 344.389 1043.33 345.938 1043.34 347.487 C 1043.34 348.212 1043.34 348.937 1043.33 349.684 C 1043.4 353.601 1043.4 353.601 1045.07 357.06 C 1047.77 358.792 1050.69 359.399 1053.78 360.155 C 1053.78 360.815 1053.78 361.475 1053.78 362.155 C 1043.88 362.155 1033.97 362.155 1023.77 362.155 C 1023.77 361.495 1023.77 360.835 1023.77 360.155 C 1026.09 359.165 1028.39 358.175 1030.78 357.155 C 1030.88 350.517 1030.95 343.878 1030.99 337.239 C 1031.02 334.98 1031.04 332.721 1031.08 330.462 C 1031.13 327.218 1031.15 323.974 1031.17 320.729 C 1031.19 319.717 1031.21 318.704 1031.23 317.661 C 1031.23 316.72 1031.23 315.779 1031.23 314.81 C 1031.24 313.982 1031.25 313.154 1031.26 312.3 C 1030.95 309.995 1030.95 309.995 1028.93 308.427 C 1026.72 307.02 1026.72 307.02 1023.77 306.155 C 1023.77 305.495 1023.77 304.835 1023.77 304.155 C 1026.38 303.987 1028.98 303.821 1031.59 303.655 C 1032.69 303.584 1032.69 303.584 1033.82 303.511 C 1036.81 303.321 1039.78 303.155 1042.78 303.155 Z" style="fill: rgb(255, 255, 255);"/>
  <path d="M 1103.78 391.155 C 1103.78 397.095 1103.78 403.035 1103.78 409.155 C 1109.38 409.155 1114.99 409.155 1120.78 409.155 C 1120.78 409.815 1120.78 410.475 1120.78 411.155 C 1115.16 411.155 1109.56 411.155 1103.78 411.155 C 1103.84 417.918 1103.93 424.681 1104.04 431.443 C 1104.07 433.744 1104.1 436.045 1104.12 438.346 C 1104.15 441.652 1104.21 444.958 1104.26 448.264 C 1104.27 449.294 1104.28 450.323 1104.28 451.384 C 1104.31 452.825 1104.31 452.825 1104.34 454.295 C 1104.35 455.139 1104.37 455.982 1104.38 456.852 C 1104.87 459.69 1105.8 461.083 1107.78 463.155 C 1110.69 463.906 1110.69 463.906 1113.78 463.155 C 1117.86 460.002 1119.51 457.115 1120.78 452.155 C 1121.77 452.155 1122.76 452.155 1123.78 452.155 C 1122.98 457.59 1121.34 461.744 1117.21 465.468 C 1112.52 468.716 1108.4 469.029 1102.78 468.155 C 1098.57 466.012 1096.3 463.62 1094.7 459.175 C 1093.41 454.426 1093.53 449.737 1093.58 444.846 C 1093.58 443.88 1093.59 442.913 1093.59 441.917 C 1093.6 438.85 1093.63 435.784 1093.65 432.718 C 1093.66 430.63 1093.67 428.542 1093.68 426.454 C 1093.7 421.354 1093.73 416.255 1093.78 411.155 C 1090.47 411.155 1087.17 411.155 1083.78 411.155 C 1083.78 410.495 1083.78 409.835 1083.78 409.155 C 1087.08 409.155 1090.38 409.155 1093.78 409.155 C 1093.78 403.545 1093.78 397.935 1093.78 392.155 C 1099.78 391.155 1099.78 391.155 1103.78 391.155 Z" style="fill: rgb(255, 255, 255);"/>
  <path d="M 1072.12 410.956 C 1074.63 412.774 1076.23 414.454 1077.78 417.155 C 1078.23 420.38 1078.34 422.217 1076.65 425.03 C 1073.89 426.684 1071.92 426.549 1068.78 426.155 C 1066.9 424.968 1066.9 424.968 1065.78 423.155 C 1065.28 419.933 1065.49 418.596 1067.28 415.843 C 1067.77 415.286 1068.27 414.729 1068.78 414.155 C 1064.67 411.171 1061.82 410.536 1056.78 411.155 C 1051.3 413.563 1049.32 417.134 1046.83 422.298 C 1045.06 427.098 1045.09 431.655 1045.21 436.718 C 1045.2 437.694 1045.19 438.671 1045.18 439.677 C 1045.26 447.369 1046.85 453.715 1051.9 459.655 C 1055.34 462.406 1058.02 462.551 1062.32 462.503 C 1066.51 461.909 1069.62 459.913 1072.78 457.155 C 1073.83 455.521 1074.85 453.863 1075.78 452.155 C 1076.77 452.155 1077.76 452.155 1078.78 452.155 C 1077.43 457.65 1074.99 461.458 1070.78 465.155 C 1065.53 468.289 1059.76 469.026 1053.78 468.155 C 1045.4 466.025 1040.95 462.351 1036.53 455.112 C 1032.16 446.303 1032.04 434.839 1034.88 425.538 C 1038.39 417.986 1042.89 412.693 1050.53 409.28 C 1057.84 406.911 1065.41 407.035 1072.12 410.956 Z" style="fill: rgb(255, 255, 255);"/>
  <path d="M 948.115 305.956 C 950.632 307.774 952.232 309.454 953.775 312.155 C 954.227 315.38 954.338 317.217 952.65 320.03 C 949.894 321.684 947.924 321.549 944.775 321.155 C 942.9 319.968 942.9 319.968 941.775 318.155 C 941.279 314.933 941.489 313.596 943.275 310.843 C 943.77 310.286 944.265 309.729 944.775 309.155 C 940.672 306.171 937.817 305.536 932.775 306.155 C 927.302 308.563 925.319 312.134 922.827 317.298 C 921.06 322.098 921.089 326.655 921.213 331.718 C 921.202 332.694 921.191 333.671 921.179 334.677 C 921.257 342.369 922.851 348.715 927.9 354.655 C 931.339 357.406 934.021 357.551 938.322 357.503 C 942.514 356.909 945.622 354.913 948.775 352.155 C 949.828 350.521 950.848 348.863 951.775 347.155 C 952.765 347.155 953.755 347.155 954.775 347.155 C 953.435 352.65 950.986 356.458 946.775 360.155 C 941.533 363.289 935.763 364.026 929.775 363.155 C 921.396 361.025 916.954 357.351 912.525 350.112 C 908.159 341.303 908.038 329.839 910.881 320.538 C 914.393 312.986 918.889 307.693 926.525 304.28 C 933.844 301.911 941.415 302.035 948.115 305.956 Z" style="fill: rgb(255, 255, 255);"/>
  <path d="M 1005.77 411.155 C 1009.1 413.671 1010.73 416.136 1011.77 420.155 C 1011.77 423.455 1011.77 426.755 1011.77 430.155 C 1003.86 430.155 995.935 430.155 987.775 430.155 C 988.758 421.306 989.581 416.798 996.15 411.093 C 999.783 409.795 1002.08 410.146 1005.77 411.155 Z" style="fill: rgb(28, 36, 52);"/>
  <path d="M 672.775 496.155 C 674.673 496.093 676.57 496.031 678.525 495.968 C 680.126 495.915 680.126 495.915 681.76 495.862 C 685.104 496.187 686.441 496.776 688.775 499.155 C 689.025 501.843 689.025 501.843 688.775 504.155 C 687.785 504.485 686.795 504.815 685.775 505.155 C 685.775 505.815 685.775 506.475 685.775 507.155 C 686.765 507.485 687.755 507.815 688.775 508.155 C 689.088 511.468 689.088 511.468 688.775 515.155 C 686.963 517.093 686.963 517.093 683.775 518.155 C 680.145 518.155 676.515 518.155 672.775 518.155 C 672.775 510.895 672.775 503.635 672.775 496.155 Z" style="fill: rgb(255, 255, 255);"/>
  <path d="M 804.775 496.155 C 816.138 495.661 816.138 495.661 819.135 497.983 C 820.775 500.155 820.775 500.155 821.275 503.155 C 820.775 506.155 820.775 506.155 819.275 508.53 C 815.643 510.891 813.057 510.441 808.775 510.155 C 808.775 512.795 808.775 515.435 808.775 518.155 C 807.455 518.155 806.135 518.155 804.775 518.155 C 804.775 510.895 804.775 503.635 804.775 496.155 Z" style="fill: rgb(255, 255, 255);"/>
  <path d="M 764.775 440.155 C 765.765 440.155 766.755 440.155 767.775 440.155 C 767.775 449.065 767.775 457.975 767.775 467.155 C 767.115 467.155 766.455 467.155 765.775 467.155 C 765.115 465.175 764.455 463.195 763.775 461.155 C 760.455 461.831 757.769 463.085 754.775 464.655 C 749.028 467.669 745.058 468.278 738.525 468.218 C 737.262 468.209 735.999 468.2 734.697 468.19 C 733.733 468.179 732.769 468.167 731.775 468.155 C 735.149 465.069 737.584 464.782 742.088 464.655 C 747.438 464.367 751.056 463.617 755.775 461.155 C 756.765 460.825 757.755 460.495 758.775 460.155 C 762.406 454.182 764.044 447.032 764.775 440.155 Z" style="fill: rgb(255, 255, 255);"/>
  <path d="M 764.775 335.155 C 765.765 335.155 766.755 335.155 767.775 335.155 C 767.775 344.065 767.775 352.975 767.775 362.155 C 767.115 362.155 766.455 362.155 765.775 362.155 C 765.115 360.175 764.455 358.195 763.775 356.155 C 760.455 356.831 757.769 358.085 754.775 359.655 C 749.028 362.669 745.058 363.278 738.525 363.218 C 737.262 363.209 735.999 363.2 734.697 363.19 C 733.733 363.179 732.769 363.167 731.775 363.155 C 735.149 360.069 737.584 359.782 742.088 359.655 C 747.438 359.367 751.056 358.617 755.775 356.155 C 756.765 355.825 757.755 355.495 758.775 355.155 C 762.406 349.182 764.044 342.032 764.775 335.155 Z" style="fill: rgb(255, 255, 255);"/>
  <path d="M 782.775 497.155 C 782.775 498.145 782.775 499.135 782.775 500.155 C 780.135 500.155 777.495 500.155 774.775 500.155 C 774.775 501.145 774.775 502.135 774.775 503.155 C 775.341 503.432 775.907 503.709 776.49 503.995 C 777.223 504.357 777.957 504.719 778.713 505.093 C 779.809 505.632 779.809 505.632 780.927 506.182 C 782.775 507.155 782.775 507.155 783.775 508.155 C 784.038 512.187 784.069 513.714 781.775 517.155 C 778.811 518.059 775.867 518.27 772.775 518.155 C 770.213 516.718 770.213 516.718 768.775 515.155 C 769.105 514.495 769.435 513.835 769.775 513.155 C 772.745 513.485 775.715 513.815 778.775 514.155 C 778.775 512.835 778.775 511.515 778.775 510.155 C 777.661 509.701 776.548 509.248 775.4 508.78 C 771.775 507.155 771.775 507.155 769.775 505.155 C 769.273 501.974 769.537 500.549 771.213 497.78 C 775.076 495.33 778.434 496.302 782.775 497.155 Z" style="fill: rgb(255, 255, 255);"/>
  <path d="M 707.775 496.155 C 709.963 496.155 709.963 496.155 712.775 497.155 C 714.765 499.698 716.198 502.316 717.775 505.155 C 719.425 502.185 721.075 499.215 722.775 496.155 C 724.095 496.155 725.415 496.155 726.775 496.155 C 725.676 499.178 724.472 501.624 722.713 504.343 C 720.128 508.685 719.975 513.197 719.775 518.155 C 718.125 518.155 716.475 518.155 714.775 518.155 C 714.773 517.549 714.77 516.943 714.767 516.319 C 714.465 509.76 712.705 505.618 709.052 500.186 C 707.775 498.155 707.775 498.155 707.775 496.155 Z" style="fill: rgb(255, 255, 255);"/>
  <path d="M 865.775 496.155 C 871.715 496.155 877.655 496.155 883.775 496.155 C 883.775 497.145 883.775 498.135 883.775 499.155 C 881.465 499.155 879.155 499.155 876.775 499.155 C 876.775 505.425 876.775 511.695 876.775 518.155 C 875.455 518.155 874.135 518.155 872.775 518.155 C 872.775 511.885 872.775 505.615 872.775 499.155 C 870.465 499.155 868.155 499.155 865.775 499.155 C 865.775 498.165 865.775 497.175 865.775 496.155 Z" style="fill: rgb(255, 255, 255);"/>
  <path d="M 841.775 496.155 C 843.095 496.155 844.415 496.155 845.775 496.155 C 845.775 503.415 845.775 510.675 845.775 518.155 C 844.455 518.155 843.135 518.155 841.775 518.155 C 841.775 510.895 841.775 503.635 841.775 496.155 Z" style="fill: rgb(255, 255, 255);"/>
  <path d="M 808.775 499.155 C 811.65 499.03 811.65 499.03 814.775 499.155 C 815.435 499.815 816.095 500.475 816.775 501.155 C 816.22 505.711 816.22 505.711 814.775 507.155 C 812.776 507.196 810.775 507.198 808.775 507.155 C 808.775 504.515 808.775 501.875 808.775 499.155 Z" style="fill: rgb(28, 36, 52);"/>
  <path d="M 732.775 387.155 C 740.785 386.851 747.466 386.647 754.775 390.155 C 754.445 391.145 754.115 392.135 753.775 393.155 C 753.218 392.939 752.661 392.722 752.088 392.499 C 745.034 389.925 739.186 389.302 731.775 391.155 C 732.105 389.835 732.435 388.515 732.775 387.155 Z" style="fill: rgb(255, 255, 255);"/>
  <path d="M 732.775 282.155 C 740.785 281.851 747.466 281.647 754.775 285.155 C 754.445 286.145 754.115 287.135 753.775 288.155 C 753.218 287.939 752.661 287.722 752.088 287.499 C 745.034 284.925 739.186 284.302 731.775 286.155 C 732.105 284.835 732.435 283.515 732.775 282.155 Z" style="fill: rgb(255, 255, 255);"/>
  <path d="M 676.775 508.155 C 679.108 508.113 681.442 508.114 683.775 508.155 C 684.775 509.155 684.775 509.155 684.9 511.655 C 684.775 514.155 684.775 514.155 683.775 515.155 C 681.442 515.196 679.108 515.198 676.775 515.155 C 676.775 512.845 676.775 510.535 676.775 508.155 Z" style="fill: rgb(28, 36, 52);"/>
  <path d="M 754.775 462.155 C 754.775 463.145 754.775 464.135 754.775 465.155 C 746.998 468.373 740.133 468.476 731.775 468.155 C 735.153 465.066 737.64 464.756 742.15 464.593 C 746.745 464.415 750.461 463.778 754.775 462.155 Z" style="fill: rgb(255, 255, 255);"/>
  <path d="M 754.775 357.155 C 754.775 358.145 754.775 359.135 754.775 360.155 C 746.998 363.373 740.133 363.476 731.775 363.155 C 735.153 360.066 737.64 359.756 742.15 359.593 C 746.745 359.415 750.461 358.778 754.775 357.155 Z" style="fill: rgb(255, 255, 255);"/>
  <path d="M 676.775 499.155 C 682.525 499.03 682.525 499.03 684.775 500.155 C 684.775 501.475 684.775 502.795 684.775 504.155 C 682.066 505.509 679.766 505.22 676.775 505.155 C 676.775 503.175 676.775 501.195 676.775 499.155 Z" style="fill: rgb(28, 36, 52);"/>
  <path d="M 1039.78 303.155 C 1040.77 303.155 1041.76 303.155 1042.78 303.155 C 1043.11 306.455 1043.43 309.755 1043.78 313.155 C 1046.09 310.515 1048.39 307.875 1050.78 305.155 C 1051.43 305.485 1052.1 305.815 1052.78 306.155 C 1052.78 306.815 1052.78 307.475 1052.78 308.155 C 1051.12 309.499 1049.45 310.831 1047.78 312.155 C 1047.24 312.898 1046.7 313.64 1046.15 314.405 C 1045.7 314.983 1045.24 315.56 1044.78 316.155 C 1043.79 316.155 1042.8 316.155 1041.78 316.155 C 1041.78 312.195 1041.78 308.235 1041.78 304.155 C 1041.12 303.825 1040.45 303.495 1039.78 303.155 Z" style="fill: rgb(255, 255, 255);"/>
  <path d="M 1092.78 303.155 C 1100.62 302.506 1105.56 303.169 1111.78 308.155 C 1111.12 308.815 1110.45 309.475 1109.78 310.155 C 1109.25 309.695 1108.73 309.235 1108.2 308.761 C 1105.2 306.772 1102.54 306.205 1099.03 305.468 C 1097.86 305.216 1096.68 304.965 1095.48 304.706 C 1094.14 304.433 1094.14 304.433 1092.78 304.155 C 1092.78 303.825 1092.78 303.495 1092.78 303.155 Z" style="fill: rgb(255, 255, 255);"/>
  <path d="M 936.775 409.155 C 937.435 409.485 938.095 409.815 938.775 410.155 C 937.435 414.177 935.256 414.858 931.775 417.155 C 929.942 419.261 929.942 419.261 928.775 421.155 C 928.115 420.825 927.455 420.495 926.775 420.155 C 929.6 415.483 932.453 412.495 936.775 409.155 Z" style="fill: rgb(255, 255, 255);"/>
  <path d="M 869.775 409.155 C 870.435 409.485 871.095 409.815 871.775 410.155 C 870.435 414.177 868.256 414.858 864.775 417.155 C 862.942 419.261 862.942 419.261 861.775 421.155 C 861.115 420.825 860.455 420.495 859.775 420.155 C 862.6 415.483 865.453 412.495 869.775 409.155 Z" style="fill: rgb(255, 255, 255);"/>
  <path d="M 869.775 304.155 C 870.435 304.485 871.095 304.815 871.775 305.155 C 870.435 309.177 868.256 309.858 864.775 312.155 C 862.942 314.261 862.942 314.261 861.775 316.155 C 861.115 315.825 860.455 315.495 859.775 315.155 C 862.6 310.483 865.453 307.495 869.775 304.155 Z" style="fill: rgb(255, 255, 255);"/>
  <path d="M 1109.78 353.155 C 1110.77 353.485 1111.76 353.815 1112.78 354.155 C 1111.85 355.307 1110.91 356.452 1109.96 357.593 C 1109.18 358.55 1109.18 358.55 1108.38 359.526 C 1106.78 361.155 1106.78 361.155 1103.78 362.155 C 1103.78 361.495 1103.78 360.835 1103.78 360.155 C 1103.12 359.825 1102.45 359.495 1101.78 359.155 C 1102.72 358.722 1103.67 358.289 1104.65 357.843 C 1107.98 356.362 1107.98 356.362 1109.78 353.155 Z" style="fill: rgb(255, 255, 255);"/>
  <path d="M 732.775 387.155 C 734.755 387.155 736.735 387.155 738.775 387.155 C 736.775 390.155 736.775 390.155 734.15 390.843 C 732.975 390.997 732.975 390.997 731.775 391.155 C 732.105 389.835 732.435 388.515 732.775 387.155 Z" style="fill: rgb(255, 255, 255);"/>
  <path d="M 732.775 282.155 C 734.755 282.155 736.735 282.155 738.775 282.155 C 736.775 285.155 736.775 285.155 734.15 285.843 C 732.975 285.997 732.975 285.997 731.775 286.155 C 732.105 284.835 732.435 283.515 732.775 282.155 Z" style="fill: rgb(255, 255, 255);"/>
</svg>