<?xml version="1.0" encoding="UTF-8"?>
<svg version="1.1" xmlns="http://www.w3.org/2000/svg" width="1200" height="1200">
<path d="M0 0 C396 0 792 0 1200 0 C1200 396 1200 792 1200 1200 C804 1200 408 1200 0 1200 C0 804 0 408 0 0 Z " fill="#FEFEFE" transform="translate(0,0)"/>
<path d="M0 0 C2.16370259 0.96447339 4.33436344 1.91141415 6.50762939 2.85412598 C8.80451408 3.85063486 11.10090555 4.84813563 13.39511108 5.85079956 C20.74144965 9.06030531 28.13486905 12.15057393 35.5411377 15.21871948 C39.25225098 16.7567361 42.96053277 18.30155495 46.66925049 19.84533691 C48.22784328 20.49377673 49.78643705 21.14221417 51.34503174 21.79064941 C59.84378893 25.32740985 68.34061474 28.86877326 76.83459473 32.41699219 C78.75154342 33.21733957 80.66881577 34.01691224 82.58642578 34.81567383 C85.26850671 35.9329674 87.94946782 37.05290815 90.63018799 38.17346191 C91.42545898 38.50406616 92.22072998 38.83467041 93.0401001 39.17529297 C104.42340844 43.94324486 104.42340844 43.94324486 106.35675049 45.87658691 C106.91925049 48.12658691 106.91925049 48.12658691 106.35675049 50.87658691 C102.57513088 54.30786574 97.76544465 56.18644401 93.06768799 58.02893066 C92.18129639 58.37818604 91.29490479 58.72744141 90.38165283 59.08728027 C89.71343506 59.34775146 89.04521729 59.60822266 88.35675049 59.87658691 C87.81117877 72.12329053 87.44107794 84.36952397 87.23175049 96.62658691 C87.21634216 97.52293224 87.20093384 98.41927757 87.18505859 99.34278488 C86.7750086 126.30846968 87.68321164 148.99630906 104.70440674 171.24206543 C106.53401781 174.15922457 106.98219092 175.50674488 106.35675049 178.87658691 C104.79616782 180.88189941 103.90613572 181.77051168 101.38372803 182.25753784 C100.26145813 182.26111801 100.26145813 182.26111801 99.11651611 182.26477051 C98.26553345 182.27422699 97.41455078 182.28368347 96.53778076 182.29342651 C95.62210327 182.28735382 94.70642578 182.28128113 93.76300049 182.27502441 C92.34839539 182.27932968 92.34839539 182.27932968 90.9052124 182.28372192 C88.9113505 182.28576338 86.91746861 182.28022784 84.92364502 182.2677002 C81.86834005 182.2516478 78.81435797 182.26754624 75.75909424 182.28674316 C73.8228934 182.28476075 71.88669338 182.2809171 69.95050049 182.27502441 C69.034823 182.28109711 68.11914551 182.2871698 67.17572021 182.29342651 C66.32473755 182.28397003 65.47375488 182.27451355 64.59698486 182.26477051 C63.47471497 182.26119034 63.47471497 182.26119034 62.32977295 182.25753784 C59.78693649 181.7665673 58.87838085 180.94787945 57.35675049 178.87658691 C57.49406377 173.1402367 59.56652454 168.77325803 62.13800049 163.79064941 C62.51154663 163.04826019 62.88509277 162.30587097 63.2699585 161.54098511 C64.45622878 159.18966112 65.65646495 156.84578168 66.85675049 154.50158691 C67.66361703 152.90437338 68.46961561 151.30672106 69.27471924 149.70861816 C75.16041291 138.0729245 75.16041291 138.0729245 76.35675049 136.87658691 C76.48091269 134.60738466 76.53478797 132.33432241 76.56207275 130.06188965 C76.57197235 129.34973297 76.58187195 128.63757629 76.59207153 127.90383911 C76.6237726 125.53932063 76.64847773 123.17478202 76.67315674 120.81018066 C76.69371885 119.17492639 76.71471512 117.53967753 76.73612976 115.9044342 C76.79142721 111.59229905 76.8408025 107.28011533 76.88897705 102.96789551 C76.93913621 98.57087868 76.99485136 94.17393272 77.05010986 89.77697754 C77.15778522 81.14357385 77.2592092 72.51011102 77.35675049 63.87658691 C76.20457031 64.46738037 75.05239014 65.05817383 73.86529541 65.66687012 C69.72507106 67.73530655 65.5186594 69.52279505 61.22003174 71.23205566 C60.46701782 71.53490982 59.71400391 71.83776398 58.93817139 72.14979553 C57.33991574 72.79250748 55.74111868 73.43387455 54.14181519 74.07397461 C49.96008231 75.74850518 45.78321895 77.43507055 41.60675049 79.12268066 C40.79067825 79.45236847 39.97460602 79.78205627 39.13380432 80.12173462 C33.11684418 82.55744751 27.12793293 85.05121393 21.16925049 87.62658691 C20.38968994 87.96182373 19.61012939 88.29706055 18.8069458 88.64245605 C15.220443 90.18949529 11.6409169 91.75071284 8.06964111 93.3326416 C4.52494831 94.90165207 0.97248329 96.452031 -2.58074951 98.00158691 C-3.69022949 98.50013184 -4.79970947 98.99867676 -5.94281006 99.5123291 C-6.98735352 99.9651123 -8.03189697 100.41789551 -9.10809326 100.88439941 C-10.03227051 101.29319336 -10.95644775 101.7019873 -11.90863037 102.12316895 C-17.76943975 103.73788707 -22.9440074 101.14825004 -28.33856201 98.91955566 C-29.07513031 98.62070465 -29.81169861 98.32185364 -30.57058716 98.01394653 C-32.9724746 97.03705725 -35.37042545 96.05090341 -37.76824951 95.06408691 C-39.44458043 94.37918705 -41.12101378 93.69453785 -42.79754639 93.01013184 C-53.74792864 88.52879446 -64.64443875 83.93118296 -75.50482178 79.23571777 C-83.87328852 75.61963841 -92.27793061 72.10127666 -100.70574951 68.62658691 C-101.91489014 68.12755859 -103.12403076 67.62853027 -104.36981201 67.11437988 C-106.70322837 66.15162151 -109.03672178 65.18904983 -111.37030029 64.22668457 C-116.13093999 62.26291182 -120.89010335 60.29593424 -125.64324951 58.31408691 C-126.77258911 57.84857422 -126.77258911 57.84857422 -127.92474365 57.37365723 C-131.67909204 55.80274154 -135.3369121 54.26974542 -138.64324951 51.87658691 C-139.45574951 48.68908691 -139.45574951 48.68908691 -139.64324951 45.87658691 C-134.12964702 42.16082902 -128.62972161 39.45497947 -122.42449951 37.09924316 C-120.64530382 36.40550196 -118.86667405 35.71030795 -117.08856201 35.01379395 C-116.18460693 34.66117493 -115.28065186 34.30855591 -114.3493042 33.94525146 C-110.05804054 32.25056238 -105.80310898 30.47188397 -101.54949951 28.68518066 C-100.70851212 28.3325264 -99.86752472 27.97987213 -99.00105286 27.61653137 C-97.27077834 26.89030457 -95.54076506 26.16345507 -93.81100464 25.43600464 C-90.11139858 23.88014459 -86.4102502 22.32796876 -82.70918274 20.77558899 C-80.8116801 19.97968977 -78.91424942 19.18361897 -77.01689148 18.38737488 C-67.5863944 14.43054256 -58.14710009 10.49493766 -48.70574951 6.56408691 C-45.46060299 5.21273679 -45.46060299 5.21273679 -42.21572876 3.86073303 C-40.87807885 3.30433567 -39.53966074 2.74978084 -38.20040894 2.19725037 C-35.2004018 0.95742103 -32.22286555 -0.3131052 -29.26385498 -1.64831543 C-17.55231427 -6.86991656 -11.3759693 -5.07148995 0 0 Z " fill="#02989E" transform="translate(364.64324951171875,512.1234130859375)"/>
<path d="M0 0 C0.00546844 1.49004547 0.00546844 1.49004547 0.01104736 3.01019287 C0.04797771 12.36861064 0.1057287 21.72669876 0.18390274 31.08486557 C0.22342356 35.89610922 0.25558937 40.70716859 0.27099609 45.51855469 C0.28613245 50.16125719 0.32052389 54.80345321 0.36830902 59.44593048 C0.38315409 61.21771087 0.3910428 62.98956356 0.39188385 64.76140594 C0.39424594 67.24220369 0.42126231 69.72159304 0.45410156 72.20214844 C0.4490712 72.93582642 0.44404083 73.66950439 0.43885803 74.42541504 C0.50863554 77.82898168 0.75848207 79.68285355 2.84661865 82.42486572 C5.00354625 84.17054568 5.00354625 84.17054568 8 85 C8 85.66 8 86.32 8 87 C2.06 87 -3.88 87 -10 87 C-10.495 83.535 -10.495 83.535 -11 80 C-11.721875 80.94875 -12.44375 81.8975 -13.1875 82.875 C-15.42372905 85.8140439 -17.47583998 86.90129129 -21 88 C-28.08424356 88.91068004 -34.18176419 88.3126397 -40 84 C-45.61661331 79.07269832 -48.36059314 73.01326042 -49.30151367 65.63598633 C-49.43542753 63.24855728 -49.46826726 60.89088284 -49.4375 58.5 C-49.42920166 57.66557373 -49.42090332 56.83114746 -49.41235352 55.97143555 C-49.24564025 49.91814219 -48.59760606 45.03028104 -45 40 C-44.49082031 39.28585937 -43.98164062 38.57171875 -43.45703125 37.8359375 C-39.02025583 32.25189521 -34.46762143 28.68581908 -27.328125 27.58984375 C-20.35380214 27.21415509 -16.64759693 29.10354785 -11 33 C-10.97095136 29.08334892 -10.95318483 25.1667256 -10.9375 21.25 C-10.92493164 19.58324219 -10.92493164 19.58324219 -10.91210938 17.8828125 C-10.90888672 16.81289063 -10.90566406 15.74296875 -10.90234375 14.640625 C-10.89710693 13.65610352 -10.89187012 12.67158203 -10.88647461 11.65722656 C-10.98840897 9.27130486 -11.31696643 7.27835419 -12 5 C-14.31 4.34 -16.62 3.68 -19 3 C-19 2.34 -19 1.68 -19 1 C-16.77100213 0.83109082 -14.54179338 0.66496313 -12.3125 0.5 C-11.07113281 0.4071875 -9.82976563 0.314375 -8.55078125 0.21875 C-5.68277166 0.04206294 -2.87039067 -0.01722665 0 0 Z " fill="#3F3F3F" transform="translate(945,498)"/>
<path d="M0 0 C5.43781587 3.34924299 9.8711746 8.66654873 11.82421875 14.8046875 C13.60542785 25.42775441 13.58595268 38.29728415 7.8515625 47.6953125 C2.97144382 53.97961628 -2.90658216 56.71990035 -10.69921875 57.80078125 C-18.03861059 58.16822192 -23.78069454 56.75813589 -29.7421875 52.390625 C-37.05805086 45.41503435 -38.87179247 36.74617323 -39.1796875 26.953125 C-38.99274776 18.54083666 -37.08351161 12.10919859 -32.6171875 5.015625 C-23.1761295 -3.60447143 -11.69320269 -5.33901859 0 0 Z " fill="#FCFCFC" transform="translate(641.7421875,633.609375)"/>
<path d="M0 0 C5.43781587 3.34924299 9.8711746 8.66654873 11.82421875 14.8046875 C13.60542785 25.42775441 13.58595268 38.29728415 7.8515625 47.6953125 C2.97144382 53.97961628 -2.90658216 56.71990035 -10.69921875 57.80078125 C-18.03861059 58.16822192 -23.78069454 56.75813589 -29.7421875 52.390625 C-37.05805086 45.41503435 -38.87179247 36.74617323 -39.1796875 26.953125 C-38.99274776 18.54083666 -37.08351161 12.10919859 -32.6171875 5.015625 C-23.1761295 -3.60447143 -11.69320269 -5.33901859 0 0 Z " fill="#FCFCFC" transform="translate(641.7421875,528.609375)"/>
<path d="M0 0 C5.521462 3.97105147 9.22753027 8.97781583 11.15625 15.55078125 C11.59527873 18.99770688 11.6336956 22.39172958 11.59375 25.86328125 C11.58400146 26.79809326 11.57425293 27.73290527 11.56420898 28.69604492 C11.31812146 38.23673326 9.8293691 44.33545698 2.78125 51.05078125 C-3.44748917 56.42114294 -9.67111788 57.00347428 -17.6484375 56.8671875 C-24.61173764 56.17766756 -29.38730163 52.87376125 -33.84375 47.55078125 C-38.58275699 40.44227076 -39.06954122 34.68154384 -39.15625 26.36328125 C-39.18525391 25.45513672 -39.21425781 24.54699219 -39.24414062 23.61132812 C-39.31417664 16.08515071 -37.6105163 10.35589108 -33.16796875 4.24609375 C-23.73479364 -4.8043511 -11.65713537 -6.71799197 0 0 Z " fill="#FCFCFC" transform="translate(825.84375,529.44921875)"/>
<path d="M0 0 C2.53440556 0.96672836 5.0249326 1.96758192 7.51953125 3.02734375 C8.6092775 3.48368698 8.6092775 3.48368698 9.72103882 3.94924927 C12.08669534 4.94102304 14.44958128 5.93922312 16.8125 6.9375 C18.45920034 7.62927954 20.10609312 8.32060117 21.75317383 9.01147461 C25.02152745 10.38290095 28.28895992 11.75648545 31.55566406 13.13183594 C38.00350995 15.84479687 44.4654441 18.52384702 50.93017578 21.19628906 C56.09287123 23.34003689 61.23303145 25.52933174 66.35551453 27.76716614 C69.38045512 29.08757397 72.40950115 30.39843035 75.43862915 31.709198 C76.92642683 32.35641856 78.41213326 33.00846982 79.89559937 33.66555786 C81.97097969 34.58458723 84.05286663 35.48709911 86.13671875 36.38671875 C87.34030029 36.91483154 88.54388184 37.44294434 89.78393555 37.98706055 C95.62192626 39.82580825 100.00864581 37.31123058 105.4140625 35.0078125 C106.13358093 34.70568344 106.85309937 34.40355438 107.59442139 34.0922699 C109.1383705 33.44351137 110.68147809 32.79274714 112.22381592 32.14016724 C114.6413542 31.11808581 117.06163792 30.10280099 119.48291016 29.08959961 C125.73719364 26.47198655 131.98889408 23.84827631 138.23632812 21.21435547 C141.94439312 19.65200508 145.65932804 18.10666861 149.375 16.5625 C150.47150879 16.09666504 151.56801758 15.63083008 152.69775391 15.15087891 C153.71272949 14.73112793 154.72770508 14.31137695 155.7734375 13.87890625 C156.64403809 13.5135376 157.51463867 13.14816895 158.41162109 12.77172852 C161.42681496 11.87274457 163.86973765 11.72881255 167 12 C169 14 169 14 169.125 16.875 C168 20 168 20 164.74609375 21.85546875 C158.90008978 24.58896883 152.91041064 26.99812154 146.9375 29.4375 C144.36655228 30.49324896 141.79657637 31.55135513 139.2265625 32.609375 C138.56342545 32.88206711 137.90028839 33.15475922 137.21705627 33.43571472 C130.09506431 36.36673935 122.98995644 39.33780728 115.88796997 42.31692505 C114.50715855 42.89611909 113.12619797 43.47495767 111.74508667 44.05343628 C109.81541708 44.86169182 107.88615022 45.67090003 105.95703125 46.48046875 C104.85335205 46.94348389 103.74967285 47.40649902 102.61254883 47.88354492 C101.05699012 48.54830242 99.51305398 49.24347301 98 50 C92.58857675 50.53519571 88.78430111 48.97842218 83.9453125 46.8515625 C83.17588318 46.52372269 82.40645386 46.19588287 81.6137085 45.85810852 C79.11314903 44.79019199 76.61923559 43.70759337 74.125 42.625 C72.3860704 41.87979403 70.64664594 41.13574179 68.90673828 40.39282227 C65.47300569 38.92567103 62.04131499 37.45391342 58.61132812 35.97802734 C53.05029178 33.58820603 47.46692248 31.2540094 41.875 28.9375 C40.046875 28.17578125 38.21875 27.4140625 36.390625 26.65234375 C31.96449395 24.81202818 27.53393337 22.98266384 23.10189819 21.15663147 C19.77136677 19.78337599 16.44250669 18.40609639 13.11383057 17.02835083 C11.46334577 16.34639303 9.81210665 15.66625781 8.16009521 14.98800659 C5.84702101 14.03819195 3.53656467 13.08225703 1.2265625 12.125 C0.17526154 11.69599144 0.17526154 11.69599144 -0.89727783 11.25831604 C-3.71697029 10.08382627 -5.81785934 9.18214066 -8 7 C-7.75 3.4375 -7.75 3.4375 -7 0 C-4.22424698 -1.38787651 -2.99917941 -0.7924546 0 0 Z " fill="#069AA0" transform="translate(253,604)"/>
<path d="M0 0 C4.67266993 2.91402829 8.50716253 7.74570762 9.78515625 13.11328125 C9.78515625 16.08328125 9.78515625 19.05328125 9.78515625 22.11328125 C-1.76484375 22.11328125 -13.31484375 22.11328125 -25.21484375 22.11328125 C-24.84069811 35.95742822 -24.84069811 35.95742822 -18.6875 47.80078125 C-14.33751628 51.54453252 -11.25436432 52.52400971 -5.66796875 52.4609375 C-1.47317771 51.86645278 1.62747806 49.86880231 4.78515625 47.11328125 C6.62991299 44.46065945 6.62991299 44.46065945 7.78515625 42.11328125 C8.44515625 42.11328125 9.10515625 42.11328125 9.78515625 42.11328125 C8.97750432 47.98153708 6.11215845 51.23158219 1.78515625 55.11328125 C-3.88231971 58.71660281 -10.70262253 59.05524371 -17.21484375 58.11328125 C-25.61605297 55.50225795 -30.23118206 50.78564187 -34.2421875 43.16015625 C-37.99701499 34.09319954 -37.60456594 22.61998542 -34.15234375 13.55078125 C-31.00330993 7.02208014 -27.15851317 2.8681611 -20.96484375 -0.82421875 C-14.01620561 -2.79299956 -6.71535291 -2.90952662 0 0 Z " fill="#404040" transform="translate(835.21484375,632.88671875)"/>
<path d="M0 0 C4.17828683 3.87255852 6.74231363 7.17635899 7.06079102 12.95581055 C7.08165248 14.72432457 7.08248204 16.49315475 7.06640625 18.26171875 C7.07582748 19.20054398 7.08524872 20.1393692 7.09495544 21.10664368 C7.12353643 24.09215361 7.12668503 27.07686445 7.125 30.0625 C7.12860441 33.0587297 7.13807354 36.0543828 7.16575623 39.05049133 C7.18258436 40.91124637 7.18538925 42.77219218 7.17274475 44.63298035 C7.17962814 45.47427994 7.18651154 46.31557953 7.19360352 47.18237305 C7.19264175 47.92150436 7.19167999 48.66063568 7.19068909 49.42216492 C7.66846363 51.93154496 8.58580453 52.80589411 10.5625 54.375 C12.66582891 55.08947643 12.66582891 55.08947643 14.5625 55.375 C14.5625 56.035 14.5625 56.695 14.5625 57.375 C6.3125 57.375 -1.9375 57.375 -10.4375 57.375 C-10.4375 56.715 -10.4375 56.055 -10.4375 55.375 C-9.633125 55.08625 -8.82875 54.7975 -8 54.5 C-5.3048532 53.64237432 -5.3048532 53.64237432 -4.4375 51.375 C-4.33844508 50.00744749 -4.29922928 48.63527753 -4.29223633 47.26416016 C-4.28585648 46.41632965 -4.27947662 45.56849915 -4.27290344 44.69497681 C-4.27179062 43.77727509 -4.2706778 42.85957336 -4.26953125 41.9140625 C-4.26620285 40.97194916 -4.26287445 40.02983582 -4.25944519 39.05917358 C-4.25437657 37.06354257 -4.25203684 35.06790307 -4.25219727 33.07226562 C-4.25001387 30.01938885 -4.23186597 26.96687514 -4.21289062 23.9140625 C-4.20995608 21.97656374 -4.20797169 20.03906326 -4.20703125 18.1015625 C-4.19984573 17.18790924 -4.19266022 16.27425598 -4.18525696 15.33291626 C-4.1898719 14.05171402 -4.1898719 14.05171402 -4.19458008 12.74462891 C-4.19315506 11.99565338 -4.19173004 11.24667786 -4.19026184 10.4750061 C-4.47651567 8.04360643 -5.1506733 6.44979641 -6.4375 4.375 C-9.65861552 2.76444224 -12.94450828 2.91882571 -16.4375 3.375 C-21.86464026 5.98420205 -23.8735757 9.15219124 -26.4375 14.375 C-27.63357326 17.96321979 -27.61853121 21.26311305 -27.640625 25 C-27.64917511 26.1149585 -27.64917511 26.1149585 -27.65789795 27.25244141 C-27.66733425 28.82257671 -27.67387649 30.3927317 -27.67773438 31.96289062 C-27.68746451 34.36623423 -27.71850917 36.76873114 -27.75 39.171875 C-27.75652803 40.69791159 -27.76177929 42.22395429 -27.765625 43.75 C-27.7779718 44.46881348 -27.7903186 45.18762695 -27.80303955 45.92822266 C-27.7950546 49.87110381 -27.7950546 49.87110381 -26.05371094 53.30859375 C-24.20535689 54.52817237 -22.61055517 55.00033532 -20.4375 55.375 C-20.4375 56.035 -20.4375 56.695 -20.4375 57.375 C-29.0175 57.375 -37.5975 57.375 -46.4375 57.375 C-46.4375 56.715 -46.4375 56.055 -46.4375 55.375 C-45.468125 55.08625 -44.49875 54.7975 -43.5 54.5 C-40.33085797 53.73285318 -40.33085797 53.73285318 -39.4375 51.375 C-39.33308223 49.9410255 -39.28885778 48.50241418 -39.27636719 47.06469727 C-39.26675964 46.17359756 -39.2571521 45.28249786 -39.24725342 44.36439514 C-39.2408786 42.91751564 -39.2408786 42.91751564 -39.234375 41.44140625 C-39.22867493 40.45252914 -39.22297485 39.46365204 -39.21710205 38.44480896 C-39.20764623 36.35083082 -39.20111577 34.25683775 -39.19726562 32.1628418 C-39.18754996 28.95400172 -39.15652777 25.7457993 -39.125 22.53710938 C-39.11847111 20.50521215 -39.11322019 18.47331033 -39.109375 16.44140625 C-39.0970282 15.47884415 -39.0846814 14.51628204 -39.07196045 13.52455139 C-39.07496155 12.63029953 -39.07796265 11.73604767 -39.08105469 10.81469727 C-39.07740906 10.02797134 -39.07376343 9.24124542 -39.07000732 8.43067932 C-39.53267002 5.84263823 -40.39284038 4.97771677 -42.4375 3.375 C-44.54082891 2.66052357 -44.54082891 2.66052357 -46.4375 2.375 C-46.4375 1.385 -46.4375 0.395 -46.4375 -0.625 C-40.4975 -0.625 -34.5575 -0.625 -28.4375 -0.625 C-28.1075 3.005 -27.7775 6.635 -27.4375 10.375 C-26.90125 9.488125 -26.365 8.60125 -25.8125 7.6875 C-19.87809846 -1.22466174 -9.94509763 -4.70131888 0 0 Z " fill="#3D3D3D" transform="translate(776.4375,632.625)"/>
<path d="M0 0 C4.17828683 3.87255852 6.74231363 7.17635899 7.06079102 12.95581055 C7.08165248 14.72432457 7.08248204 16.49315475 7.06640625 18.26171875 C7.07582748 19.20054398 7.08524872 20.1393692 7.09495544 21.10664368 C7.12353643 24.09215361 7.12668503 27.07686445 7.125 30.0625 C7.12860441 33.0587297 7.13807354 36.0543828 7.16575623 39.05049133 C7.18258436 40.91124637 7.18538925 42.77219218 7.17274475 44.63298035 C7.17962814 45.47427994 7.18651154 46.31557953 7.19360352 47.18237305 C7.19264175 47.92150436 7.19167999 48.66063568 7.19068909 49.42216492 C7.66846363 51.93154496 8.58580453 52.80589411 10.5625 54.375 C12.66582891 55.08947643 12.66582891 55.08947643 14.5625 55.375 C14.5625 56.035 14.5625 56.695 14.5625 57.375 C6.3125 57.375 -1.9375 57.375 -10.4375 57.375 C-10.4375 56.715 -10.4375 56.055 -10.4375 55.375 C-9.633125 55.08625 -8.82875 54.7975 -8 54.5 C-5.3048532 53.64237432 -5.3048532 53.64237432 -4.4375 51.375 C-4.33844508 50.00744749 -4.29922928 48.63527753 -4.29223633 47.26416016 C-4.28585648 46.41632965 -4.27947662 45.56849915 -4.27290344 44.69497681 C-4.27179062 43.77727509 -4.2706778 42.85957336 -4.26953125 41.9140625 C-4.26620285 40.97194916 -4.26287445 40.02983582 -4.25944519 39.05917358 C-4.25437657 37.06354257 -4.25203684 35.06790307 -4.25219727 33.07226562 C-4.25001387 30.01938885 -4.23186597 26.96687514 -4.21289062 23.9140625 C-4.20995608 21.97656374 -4.20797169 20.03906326 -4.20703125 18.1015625 C-4.19984573 17.18790924 -4.19266022 16.27425598 -4.18525696 15.33291626 C-4.1898719 14.05171402 -4.1898719 14.05171402 -4.19458008 12.74462891 C-4.19315506 11.99565338 -4.19173004 11.24667786 -4.19026184 10.4750061 C-4.47651567 8.04360643 -5.1506733 6.44979641 -6.4375 4.375 C-9.65861552 2.76444224 -12.94450828 2.91882571 -16.4375 3.375 C-21.86464026 5.98420205 -23.8735757 9.15219124 -26.4375 14.375 C-27.63357326 17.96321979 -27.61853121 21.26311305 -27.640625 25 C-27.64917511 26.1149585 -27.64917511 26.1149585 -27.65789795 27.25244141 C-27.66733425 28.82257671 -27.67387649 30.3927317 -27.67773438 31.96289062 C-27.68746451 34.36623423 -27.71850917 36.76873114 -27.75 39.171875 C-27.75652803 40.69791159 -27.76177929 42.22395429 -27.765625 43.75 C-27.7779718 44.46881348 -27.7903186 45.18762695 -27.80303955 45.92822266 C-27.7950546 49.87110381 -27.7950546 49.87110381 -26.05371094 53.30859375 C-24.20535689 54.52817237 -22.61055517 55.00033532 -20.4375 55.375 C-20.4375 56.035 -20.4375 56.695 -20.4375 57.375 C-29.0175 57.375 -37.5975 57.375 -46.4375 57.375 C-46.4375 56.715 -46.4375 56.055 -46.4375 55.375 C-45.468125 55.08625 -44.49875 54.7975 -43.5 54.5 C-40.33085797 53.73285318 -40.33085797 53.73285318 -39.4375 51.375 C-39.33308223 49.9410255 -39.28885778 48.50241418 -39.27636719 47.06469727 C-39.26675964 46.17359756 -39.2571521 45.28249786 -39.24725342 44.36439514 C-39.2408786 42.91751564 -39.2408786 42.91751564 -39.234375 41.44140625 C-39.22867493 40.45252914 -39.22297485 39.46365204 -39.21710205 38.44480896 C-39.20764623 36.35083082 -39.20111577 34.25683775 -39.19726562 32.1628418 C-39.18754996 28.95400172 -39.15652777 25.7457993 -39.125 22.53710938 C-39.11847111 20.50521215 -39.11322019 18.47331033 -39.109375 16.44140625 C-39.0970282 15.47884415 -39.0846814 14.51628204 -39.07196045 13.52455139 C-39.07496155 12.63029953 -39.07796265 11.73604767 -39.08105469 10.81469727 C-39.07740906 10.02797134 -39.07376343 9.24124542 -39.07000732 8.43067932 C-39.53267002 5.84263823 -40.39284038 4.97771677 -42.4375 3.375 C-44.54082891 2.66052357 -44.54082891 2.66052357 -46.4375 2.375 C-46.4375 1.385 -46.4375 0.395 -46.4375 -0.625 C-40.4975 -0.625 -34.5575 -0.625 -28.4375 -0.625 C-28.1075 3.005 -27.7775 6.635 -27.4375 10.375 C-26.90125 9.488125 -26.365 8.60125 -25.8125 7.6875 C-19.87809846 -1.22466174 -9.94509763 -4.70131888 0 0 Z " fill="#3D3D3D" transform="translate(709.4375,632.625)"/>
<path d="M0 0 C4.17828683 3.87255852 6.74231363 7.17635899 7.06079102 12.95581055 C7.08165248 14.72432457 7.08248204 16.49315475 7.06640625 18.26171875 C7.07582748 19.20054398 7.08524872 20.1393692 7.09495544 21.10664368 C7.12353643 24.09215361 7.12668503 27.07686445 7.125 30.0625 C7.12860441 33.0587297 7.13807354 36.0543828 7.16575623 39.05049133 C7.18258436 40.91124637 7.18538925 42.77219218 7.17274475 44.63298035 C7.17962814 45.47427994 7.18651154 46.31557953 7.19360352 47.18237305 C7.19264175 47.92150436 7.19167999 48.66063568 7.19068909 49.42216492 C7.66846363 51.93154496 8.58580453 52.80589411 10.5625 54.375 C12.66582891 55.08947643 12.66582891 55.08947643 14.5625 55.375 C14.5625 56.035 14.5625 56.695 14.5625 57.375 C6.3125 57.375 -1.9375 57.375 -10.4375 57.375 C-10.4375 56.715 -10.4375 56.055 -10.4375 55.375 C-9.633125 55.08625 -8.82875 54.7975 -8 54.5 C-5.3048532 53.64237432 -5.3048532 53.64237432 -4.4375 51.375 C-4.33844508 50.00744749 -4.29922928 48.63527753 -4.29223633 47.26416016 C-4.28585648 46.41632965 -4.27947662 45.56849915 -4.27290344 44.69497681 C-4.27179062 43.77727509 -4.2706778 42.85957336 -4.26953125 41.9140625 C-4.26620285 40.97194916 -4.26287445 40.02983582 -4.25944519 39.05917358 C-4.25437657 37.06354257 -4.25203684 35.06790307 -4.25219727 33.07226562 C-4.25001387 30.01938885 -4.23186597 26.96687514 -4.21289062 23.9140625 C-4.20995608 21.97656374 -4.20797169 20.03906326 -4.20703125 18.1015625 C-4.19984573 17.18790924 -4.19266022 16.27425598 -4.18525696 15.33291626 C-4.1898719 14.05171402 -4.1898719 14.05171402 -4.19458008 12.74462891 C-4.19315506 11.99565338 -4.19173004 11.24667786 -4.19026184 10.4750061 C-4.47651567 8.04360643 -5.1506733 6.44979641 -6.4375 4.375 C-9.65861552 2.76444224 -12.94450828 2.91882571 -16.4375 3.375 C-21.86464026 5.98420205 -23.8735757 9.15219124 -26.4375 14.375 C-27.63357326 17.96321979 -27.61853121 21.26311305 -27.640625 25 C-27.64917511 26.1149585 -27.64917511 26.1149585 -27.65789795 27.25244141 C-27.66733425 28.82257671 -27.67387649 30.3927317 -27.67773438 31.96289062 C-27.68746451 34.36623423 -27.71850917 36.76873114 -27.75 39.171875 C-27.75652803 40.69791159 -27.76177929 42.22395429 -27.765625 43.75 C-27.7779718 44.46881348 -27.7903186 45.18762695 -27.80303955 45.92822266 C-27.7950546 49.87110381 -27.7950546 49.87110381 -26.05371094 53.30859375 C-24.20535689 54.52817237 -22.61055517 55.00033532 -20.4375 55.375 C-20.4375 56.035 -20.4375 56.695 -20.4375 57.375 C-29.0175 57.375 -37.5975 57.375 -46.4375 57.375 C-46.4375 56.715 -46.4375 56.055 -46.4375 55.375 C-45.468125 55.08625 -44.49875 54.7975 -43.5 54.5 C-40.33085797 53.73285318 -40.33085797 53.73285318 -39.4375 51.375 C-39.33308223 49.9410255 -39.28885778 48.50241418 -39.27636719 47.06469727 C-39.26675964 46.17359756 -39.2571521 45.28249786 -39.24725342 44.36439514 C-39.2408786 42.91751564 -39.2408786 42.91751564 -39.234375 41.44140625 C-39.22867493 40.45252914 -39.22297485 39.46365204 -39.21710205 38.44480896 C-39.20764623 36.35083082 -39.20111577 34.25683775 -39.19726562 32.1628418 C-39.18754996 28.95400172 -39.15652777 25.7457993 -39.125 22.53710938 C-39.11847111 20.50521215 -39.11322019 18.47331033 -39.109375 16.44140625 C-39.0970282 15.47884415 -39.0846814 14.51628204 -39.07196045 13.52455139 C-39.07496155 12.63029953 -39.07796265 11.73604767 -39.08105469 10.81469727 C-39.07740906 10.02797134 -39.07376343 9.24124542 -39.07000732 8.43067932 C-39.53267002 5.84263823 -40.39284038 4.97771677 -42.4375 3.375 C-44.54082891 2.66052357 -44.54082891 2.66052357 -46.4375 2.375 C-46.4375 1.385 -46.4375 0.395 -46.4375 -0.625 C-40.4975 -0.625 -34.5575 -0.625 -28.4375 -0.625 C-28.1075 3.005 -27.7775 6.635 -27.4375 10.375 C-26.90125 9.488125 -26.365 8.60125 -25.8125 7.6875 C-19.87809846 -1.22466174 -9.94509763 -4.70131888 0 0 Z " fill="#3D3D3D" transform="translate(709.4375,527.625)"/>
<path d="M0 0 C3.29110633 2.10070617 4.8333853 3.75007795 7 7 C7.21978443 9.59216342 7.32797519 12.07425601 7.3359375 14.66796875 C7.3425943 15.42161209 7.3492511 16.17525543 7.35610962 16.95173645 C7.36623272 18.54795902 7.37092674 20.14422388 7.37060547 21.74047852 C7.37495366 24.16169895 7.41120327 26.58105826 7.44921875 29.00195312 C7.51365463 37.89301004 7.43948835 44.90280968 1.3125 51.9375 C-2.38857178 53.63799244 -5.93299069 54.21219179 -10 54 C-15.01496635 51.82369385 -16.99571252 48.85720085 -19.23828125 44.09765625 C-21.34572804 38.29407201 -21.25125687 32.40823334 -21.3125 26.3125 C-21.34150391 25.36955078 -21.37050781 24.42660156 -21.40039062 23.45507812 C-21.46461364 16.26704113 -20.47149782 8.86379214 -15.48120117 3.30957031 C-10.18527194 -1.21438809 -6.61674092 -1.49964197 0 0 Z " fill="#FBFBFB" transform="translate(928,529)"/>
<path d="M0 0 C5.43781587 3.34924299 9.8711746 8.66654873 11.82421875 14.8046875 C13.60542785 25.42775441 13.58595268 38.29728415 7.8515625 47.6953125 C2.97144382 53.97961628 -2.90658216 56.71990035 -10.69921875 57.80078125 C-18.03861059 58.16822192 -23.78069454 56.75813589 -29.7421875 52.390625 C-37.05805086 45.41503435 -38.87179247 36.74617323 -39.1796875 26.953125 C-38.99274776 18.54083666 -37.08351161 12.10919859 -32.6171875 5.015625 C-23.1761295 -3.60447143 -11.69320269 -5.33901859 0 0 Z M-22.3046875 3.578125 C-27.43936301 10.92602271 -27.92241377 18.55169473 -27.9296875 27.265625 C-27.94193359 28.03003906 -27.95417969 28.79445313 -27.96679688 29.58203125 C-27.98889898 38.2607923 -25.90792641 45.37820506 -21.2421875 52.765625 C-17.04263948 55.49533121 -12.58097193 55.21027051 -7.7421875 54.390625 C-2.73778161 50.95009595 -0.73742792 46.07439683 0.8203125 40.30859375 C1.47499057 35.94212487 1.48295241 31.612684 1.5078125 27.203125 C1.5284375 26.30787109 1.5490625 25.41261719 1.5703125 24.49023438 C1.60895877 17.79959919 1.14519214 10.24714054 -3.00927734 4.69824219 C-4.47766471 3.16852417 -4.47766471 3.16852417 -6.7421875 1.390625 C-7.0721875 1.060625 -7.4021875 0.730625 -7.7421875 0.390625 C-13.37439144 -0.45372585 -18.33137143 -0.97833945 -22.3046875 3.578125 Z " fill="#424242" transform="translate(641.7421875,633.609375)"/>
<path d="M0 0 C5.43781587 3.34924299 9.8711746 8.66654873 11.82421875 14.8046875 C13.60542785 25.42775441 13.58595268 38.29728415 7.8515625 47.6953125 C2.97144382 53.97961628 -2.90658216 56.71990035 -10.69921875 57.80078125 C-18.03861059 58.16822192 -23.78069454 56.75813589 -29.7421875 52.390625 C-37.05805086 45.41503435 -38.87179247 36.74617323 -39.1796875 26.953125 C-38.99274776 18.54083666 -37.08351161 12.10919859 -32.6171875 5.015625 C-23.1761295 -3.60447143 -11.69320269 -5.33901859 0 0 Z M-22.3046875 3.578125 C-27.43936301 10.92602271 -27.92241377 18.55169473 -27.9296875 27.265625 C-27.94193359 28.03003906 -27.95417969 28.79445313 -27.96679688 29.58203125 C-27.98889898 38.2607923 -25.90792641 45.37820506 -21.2421875 52.765625 C-17.04263948 55.49533121 -12.58097193 55.21027051 -7.7421875 54.390625 C-2.73778161 50.95009595 -0.73742792 46.07439683 0.8203125 40.30859375 C1.47499057 35.94212487 1.48295241 31.612684 1.5078125 27.203125 C1.5284375 26.30787109 1.5490625 25.41261719 1.5703125 24.49023438 C1.60895877 17.79959919 1.14519214 10.24714054 -3.00927734 4.69824219 C-4.47766471 3.16852417 -4.47766471 3.16852417 -6.7421875 1.390625 C-7.0721875 1.060625 -7.4021875 0.730625 -7.7421875 0.390625 C-13.37439144 -0.45372585 -18.33137143 -0.97833945 -22.3046875 3.578125 Z " fill="#424242" transform="translate(641.7421875,528.609375)"/>
<path d="M0 0 C5.521462 3.97105147 9.22753027 8.97781583 11.15625 15.55078125 C11.59527873 18.99770688 11.6336956 22.39172958 11.59375 25.86328125 C11.58400146 26.79809326 11.57425293 27.73290527 11.56420898 28.69604492 C11.31812146 38.23673326 9.8293691 44.33545698 2.78125 51.05078125 C-3.44748917 56.42114294 -9.67111788 57.00347428 -17.6484375 56.8671875 C-24.61173764 56.17766756 -29.38730163 52.87376125 -33.84375 47.55078125 C-38.58275699 40.44227076 -39.06954122 34.68154384 -39.15625 26.36328125 C-39.18525391 25.45513672 -39.21425781 24.54699219 -39.24414062 23.61132812 C-39.31417664 16.08515071 -37.6105163 10.35589108 -33.16796875 4.24609375 C-23.73479364 -4.8043511 -11.65713537 -6.71799197 0 0 Z M-22.84375 2.55078125 C-28.17824127 10.00213413 -28.08611472 16.780912 -28.15625 25.61328125 C-28.18525391 26.80373047 -28.21425781 27.99417969 -28.24414062 29.22070312 C-28.29756565 36.69609748 -27.6238676 42.97902744 -23.84375 49.55078125 C-20.77807445 52.54346453 -18.37174948 54.37714495 -14.09375 54.86328125 C-9.85898531 54.45609234 -8.05269132 53.34116501 -4.84375 50.55078125 C0.11257931 42.87240442 0.36324114 35.79299565 0.40625 26.86328125 C0.426875 25.81205078 0.4475 24.76082031 0.46875 23.67773438 C0.50789699 15.81408263 -0.39749757 9.25961558 -4.78125 2.61328125 C-7.73475924 -0.34022799 -9.5770839 -1.28400143 -13.71875 -1.82421875 C-17.80762891 -1.33355328 -19.70707025 -0.10857767 -22.84375 2.55078125 Z " fill="#414141" transform="translate(825.84375,529.44921875)"/>
<path d="M0 0 C0.68835938 0.54011719 1.37671875 1.08023438 2.0859375 1.63671875 C4.01560447 3.29006848 4.01560447 3.29006848 7 3 C7.66 1.02 8.32 -0.96 9 -3 C9.66 -3 10.32 -3 11 -3 C11 5.58 11 14.16 11 23 C10.01 23 9.02 23 8 23 C7.76216797 21.82244141 7.76216797 21.82244141 7.51953125 20.62109375 C5.5572738 11.37034294 5.5572738 11.37034294 0 4 C-6.94333961 0.01491424 -14.10338267 -2.20136689 -22.08984375 -0.57421875 C-29.07733084 1.61188566 -32.73961286 6.49269916 -36.25 12.6875 C-42.18492187 25.6701416 -41.98418229 43.96710544 -37.19140625 57.2265625 C-34.50123805 63.48892126 -31.68528017 68.71077537 -25.57421875 72.15625 C-18.89517075 74.3454372 -10.26902562 74.35636812 -3.75 71.5625 C-2.8425 71.046875 -1.935 70.53125 -1 70 C-0.01 69.67 0.98 69.34 2 69 C5.63047182 63.0272883 7.26840244 55.87701708 8 49 C8.99 49 9.98 49 11 49 C11 57.91 11 66.82 11 76 C10.34 76 9.68 76 9 76 C8.34 74.02 7.68 72.04 7 70 C3.67993563 70.67630941 0.99388826 71.93003421 -2 73.5 C-10.26600353 77.83461161 -19.29710329 78.59073855 -28.375 76.05859375 C-38.40546427 72.05894612 -44.38281252 66.89397318 -49 57 C-51.57944281 50.15575657 -52.52282161 43.85380244 -52.4375 36.5625 C-52.42920166 35.64235107 -52.42090332 34.72220215 -52.41235352 33.77416992 C-52.13100617 22.4612033 -48.58708493 13.51306774 -41 5 C-38.17657648 2.59298067 -35.27419969 0.73440997 -32 -1 C-31.38640625 -1.33902344 -30.7728125 -1.67804687 -30.140625 -2.02734375 C-20.64626432 -6.42964346 -8.93032003 -5.00031028 0 0 Z " fill="#404040" transform="translate(579,614)"/>
<path d="M0 0 C0.68835938 0.54011719 1.37671875 1.08023437 2.0859375 1.63671875 C4.01560447 3.29006848 4.01560447 3.29006848 7 3 C7.66 1.02 8.32 -0.96 9 -3 C9.66 -3 10.32 -3 11 -3 C11 5.58 11 14.16 11 23 C10.01 23 9.02 23 8 23 C7.76216797 21.82244141 7.76216797 21.82244141 7.51953125 20.62109375 C5.5572738 11.37034294 5.5572738 11.37034294 0 4 C-6.94333961 0.01491424 -14.10338267 -2.20136689 -22.08984375 -0.57421875 C-29.07733084 1.61188566 -32.73961286 6.49269916 -36.25 12.6875 C-42.18492187 25.6701416 -41.98418229 43.96710544 -37.19140625 57.2265625 C-34.50123805 63.48892126 -31.68528017 68.71077537 -25.57421875 72.15625 C-18.89517075 74.3454372 -10.26902562 74.35636812 -3.75 71.5625 C-2.8425 71.046875 -1.935 70.53125 -1 70 C-0.01 69.67 0.98 69.34 2 69 C5.63047182 63.0272883 7.26840244 55.87701708 8 49 C8.99 49 9.98 49 11 49 C11 57.91 11 66.82 11 76 C10.34 76 9.68 76 9 76 C8.34 74.02 7.68 72.04 7 70 C3.67993563 70.67630941 0.99388826 71.93003421 -2 73.5 C-10.26600353 77.83461161 -19.29710329 78.59073855 -28.375 76.05859375 C-38.40546427 72.05894612 -44.38281252 66.89397318 -49 57 C-51.57944281 50.15575657 -52.52282161 43.85380244 -52.4375 36.5625 C-52.42920166 35.64235107 -52.42090332 34.72220215 -52.41235352 33.77416992 C-52.13100617 22.4612033 -48.58708493 13.51306774 -41 5 C-38.17657648 2.59298067 -35.27419969 0.73440997 -32 -1 C-31.38640625 -1.33902344 -30.7728125 -1.67804688 -30.140625 -2.02734375 C-20.64626432 -6.42964346 -8.93032003 -5.00031028 0 0 Z " fill="#404040" transform="translate(579,509)"/>
<path d="M0 0 C0.33 3.3 0.66 6.6 1 10 C1.45890625 9.44570313 1.9178125 8.89140625 2.390625 8.3203125 C3.00421875 7.59585938 3.6178125 6.87140625 4.25 6.125 C4.85328125 5.40570312 5.4565625 4.68640625 6.078125 3.9453125 C9.08677796 0.89996865 11.17952564 0.07458858 15.4375 -0.3125 C20.19011724 0.10439625 22.6774023 1.6774023 26 5 C26.35314229 8.24890907 26.27783078 10.37896648 24.9375 13.375 C23 15 23 15 19.4375 15.375 C16 15 16 15 14 13 C13.75 9.5 13.75 9.5 14 6 C14.66 5.34 15.32 4.68 16 4 C12.36564179 3.46553556 11.06731202 3.95604113 7.9375 6 C2.62652335 10.98881593 0.83537853 15.84269537 0.54566956 23.05764771 C0.48850907 26.17054448 0.49249797 29.27923504 0.53344727 32.39233398 C0.56263911 34.82408829 0.55398619 37.25368915 0.54101562 39.68554688 C0.54724727 41.23438559 0.55563371 42.78321746 0.56640625 44.33203125 C0.56347061 45.05703323 0.56053497 45.78203522 0.55751038 46.52900696 C0.63024535 50.44630232 0.63024535 50.44630232 2.29663086 53.9050293 C4.99058612 55.63677494 7.91588774 56.24351963 11 57 C11 57.66 11 58.32 11 59 C1.1 59 -8.8 59 -19 59 C-19 58.34 -19 57.68 -19 57 C-16.69 56.01 -14.38 55.02 -12 54 C-11.89871173 47.36154183 -11.82858206 40.72328234 -11.78027344 34.08422852 C-11.76013834 31.82503818 -11.73282811 29.56590008 -11.69824219 27.30688477 C-11.64980838 24.06253179 -11.62705024 20.81886683 -11.609375 17.57421875 C-11.58872986 16.56163498 -11.56808472 15.54905121 -11.54681396 14.50578308 C-11.54651184 13.56503433 -11.54620972 12.62428558 -11.54589844 11.6550293 C-11.53701599 10.82674118 -11.52813354 9.99845306 -11.51898193 9.14506531 C-11.8249823 6.8401318 -11.8249823 6.8401318 -13.84088135 5.27156067 C-16.05795214 3.86460732 -16.05795214 3.86460732 -19 3 C-19 2.34 -19 1.68 -19 1 C-16.39590255 0.83218705 -13.7917318 0.66570349 -11.1875 0.5 C-10.08051758 0.42845703 -10.08051758 0.42845703 -8.95117188 0.35546875 C-5.96175412 0.16609387 -2.99625426 0 0 0 Z " fill="#434343" transform="translate(865,526)"/>
<path d="M0 0 C0 5.94 0 11.88 0 18 C5.61 18 11.22 18 17 18 C17 18.66 17 19.32 17 20 C11.39 20 5.78 20 0 20 C0.06881685 26.76306111 0.15675561 33.52550044 0.26245117 40.28808594 C0.29571251 42.58879708 0.32374063 44.88959006 0.34643555 47.19042969 C0.37995873 50.49709968 0.4322746 53.80301888 0.48828125 57.109375 C0.49467117 58.13867126 0.5010611 59.16796753 0.50764465 60.22845459 C0.53733589 61.66949554 0.53733589 61.66949554 0.56762695 63.13964844 C0.57873001 63.98348083 0.58983307 64.82731323 0.60127258 65.69671631 C1.09260267 68.53492737 2.02174186 69.927513 4 72 C6.91382729 72.75060849 6.91382729 72.75060849 10 72 C14.08047746 68.84690378 15.73124612 65.95967428 17 61 C17.99 61 18.98 61 20 61 C19.20077951 66.43469931 17.56344722 70.58908422 13.4375 74.3125 C8.74606434 77.560417 4.62078297 77.8737839 -1 77 C-5.20193018 74.85693907 -7.47225494 72.46491852 -9.07373047 68.01953125 C-10.36772975 63.27049268 -10.24980825 58.58169506 -10.1953125 53.69140625 C-10.1924826 52.72468491 -10.18965271 51.75796356 -10.18673706 50.76194763 C-10.17560407 47.69533548 -10.15051224 44.62902285 -10.125 41.5625 C-10.11496131 39.47461361 -10.10583701 37.38672262 -10.09765625 35.29882812 C-10.07568727 30.19910456 -10.04120507 25.09960295 -10 20 C-13.3 20 -16.6 20 -20 20 C-20 19.34 -20 18.68 -20 18 C-16.7 18 -13.4 18 -10 18 C-10 12.39 -10 6.78 -10 1 C-4 0 -4 0 0 0 Z " fill="#3F3F3F" transform="translate(926,614)"/>
<path d="M0 0 C2.51745073 1.81848794 4.1167509 3.49825938 5.66015625 6.19921875 C6.11166666 9.4242931 6.22306772 11.26103296 4.53515625 14.07421875 C1.77924741 15.72776406 -0.19059827 15.59287443 -3.33984375 15.19921875 C-5.21484375 14.01171875 -5.21484375 14.01171875 -6.33984375 12.19921875 C-6.83560305 8.97678332 -6.62600256 7.64038025 -4.83984375 4.88671875 C-4.34484375 4.32984375 -3.84984375 3.77296875 -3.33984375 3.19921875 C-7.44295932 0.2151347 -10.29797328 -0.41995832 -15.33984375 0.19921875 C-20.81345091 2.6076059 -22.79564069 6.17767437 -25.28808594 11.34179688 C-27.0548332 16.14170634 -27.02648603 20.69872696 -26.90234375 25.76171875 C-26.91330078 26.73818359 -26.92425781 27.71464844 -26.93554688 28.72070312 C-26.85836963 36.41270237 -25.26410853 42.75890725 -20.21484375 48.69921875 C-16.77575033 51.45049348 -14.09423168 51.59543765 -9.79296875 51.546875 C-5.60070005 50.95274775 -2.49314945 48.95742941 0.66015625 46.19921875 C1.71303439 44.56544233 2.73285635 42.90740278 3.66015625 41.19921875 C4.65015625 41.19921875 5.64015625 41.19921875 6.66015625 41.19921875 C5.32004978 46.6936553 2.8708909 50.50198833 -1.33984375 54.19921875 C-6.58167283 57.33328077 -12.35162025 58.07023308 -18.33984375 57.19921875 C-26.71938502 55.0694715 -31.16089955 51.39480567 -35.58984375 44.15625 C-39.95630936 35.34751209 -40.07692985 23.88311178 -37.234375 14.58203125 C-33.72210927 7.03018911 -29.22631563 1.73725414 -21.58984375 -1.67578125 C-14.27111762 -4.04443874 -6.69952411 -3.92066606 0 0 Z " fill="#424242" transform="translate(894.33984375,633.80078125)"/>
<path d="M0 0 C2.51745073 1.81848794 4.1167509 3.49825938 5.66015625 6.19921875 C6.11166666 9.4242931 6.22306772 11.26103296 4.53515625 14.07421875 C1.77924741 15.72776406 -0.19059827 15.59287443 -3.33984375 15.19921875 C-5.21484375 14.01171875 -5.21484375 14.01171875 -6.33984375 12.19921875 C-6.83560305 8.97678332 -6.62600256 7.64038025 -4.83984375 4.88671875 C-4.34484375 4.32984375 -3.84984375 3.77296875 -3.33984375 3.19921875 C-7.44295932 0.2151347 -10.29797328 -0.41995832 -15.33984375 0.19921875 C-20.81345091 2.6076059 -22.79564069 6.17767437 -25.28808594 11.34179688 C-27.0548332 16.14170634 -27.02648603 20.69872696 -26.90234375 25.76171875 C-26.91330078 26.73818359 -26.92425781 27.71464844 -26.93554688 28.72070312 C-26.85836963 36.41270237 -25.26410853 42.75890725 -20.21484375 48.69921875 C-16.77575033 51.45049348 -14.09423168 51.59543765 -9.79296875 51.546875 C-5.60070005 50.95274775 -2.49314945 48.95742941 0.66015625 46.19921875 C1.71303439 44.56544233 2.73285635 42.90740278 3.66015625 41.19921875 C4.65015625 41.19921875 5.64015625 41.19921875 6.66015625 41.19921875 C5.32004978 46.6936553 2.8708909 50.50198833 -1.33984375 54.19921875 C-6.58167283 57.33328077 -12.35162025 58.07023308 -18.33984375 57.19921875 C-26.71938502 55.0694715 -31.16089955 51.39480567 -35.58984375 44.15625 C-39.95630936 35.34751209 -40.07692985 23.88311178 -37.234375 14.58203125 C-33.72210927 7.03018911 -29.22631563 1.73725414 -21.58984375 -1.67578125 C-14.27111762 -4.04443874 -6.69952411 -3.92066606 0 0 Z " fill="#424242" transform="translate(770.33984375,528.80078125)"/>
<path d="M0 0 C3.32514308 2.51632449 4.95164567 4.98130841 6 9 C6 12.3 6 15.6 6 19 C-1.92 19 -9.84 19 -18 19 C-17.01680852 10.15127669 -16.19453622 5.64262356 -9.625 -0.0625 C-5.99234836 -1.35987559 -3.69917251 -1.00886523 0 0 Z " fill="#F8F8F8" transform="translate(828,634)"/>
<path d="M0 0 C1.8975 -0.061875 3.795 -0.12375 5.75 -0.1875 C7.35101563 -0.23970703 7.35101563 -0.23970703 8.984375 -0.29296875 C12.32860393 0.03192396 13.66540011 0.62050396 16 3 C16.25 5.6875 16.25 5.6875 16 8 C15.01 8.33 14.02 8.66 13 9 C13 9.66 13 10.32 13 11 C13.99 11.33 14.98 11.66 16 12 C16.3125 15.3125 16.3125 15.3125 16 19 C14.1875 20.9375 14.1875 20.9375 11 22 C7.37 22 3.74 22 0 22 C0 14.74 0 7.48 0 0 Z " fill="#585858" transform="translate(495,719)"/>
<path d="M0 0 C11.36242083 -0.4940183 11.36242083 -0.4940183 14.359375 1.828125 C16 4 16 4 16.5 7 C16 10 16 10 14.5 12.375 C10.86748926 14.73613198 8.28156703 14.2854378 4 14 C4 16.64 4 19.28 4 22 C2.68 22 1.36 22 0 22 C0 14.74 0 7.48 0 0 Z " fill="#5D5D5D" transform="translate(627,719)"/>
<path d="M0 0 C0.99 0 1.98 0 3 0 C3 8.91 3 17.82 3 27 C2.34 27 1.68 27 1 27 C0.34 25.02 -0.32 23.04 -1 21 C-4.32006437 21.67630941 -7.00611174 22.93003421 -10 24.5 C-15.74725325 27.51380353 -19.7170494 28.12299028 -26.25 28.0625 C-27.51328125 28.05347656 -28.7765625 28.04445313 -30.078125 28.03515625 C-31.04234375 28.02355469 -32.0065625 28.01195312 -33 28 C-29.6265885 24.91386198 -27.19161017 24.62702543 -22.6875 24.5 C-17.33764426 24.21179228 -13.71940743 23.46229953 -9 21 C-8.01 20.67 -7.02 20.34 -6 20 C-2.36952818 14.0272883 -0.73159756 6.87701708 0 0 Z " fill="#414141" transform="translate(587,663)"/>
<path d="M0 0 C0.99 0 1.98 0 3 0 C3 8.91 3 17.82 3 27 C2.34 27 1.68 27 1 27 C0.34 25.02 -0.32 23.04 -1 21 C-4.32006437 21.67630941 -7.00611174 22.93003421 -10 24.5 C-15.74725325 27.51380353 -19.7170494 28.12299028 -26.25 28.0625 C-27.51328125 28.05347656 -28.7765625 28.04445313 -30.078125 28.03515625 C-31.04234375 28.02355469 -32.0065625 28.01195312 -33 28 C-29.6265885 24.91386198 -27.19161017 24.62702543 -22.6875 24.5 C-17.33764426 24.21179228 -13.71940743 23.46229953 -9 21 C-8.01 20.67 -7.02 20.34 -6 20 C-2.36952818 14.0272883 -0.73159756 6.87701708 0 0 Z " fill="#414141" transform="translate(587,558)"/>
<path d="M0 0 C0 0.99 0 1.98 0 3 C-2.64 3 -5.28 3 -8 3 C-8 3.99 -8 4.98 -8 6 C-7.43410156 6.27714844 -6.86820313 6.55429687 -6.28515625 6.83984375 C-5.55167969 7.20207031 -4.81820312 7.56429687 -4.0625 7.9375 C-2.96615234 8.47697266 -2.96615234 8.47697266 -1.84765625 9.02734375 C0 10 0 10 1 11 C1.26293056 15.03160191 1.29404844 16.55892734 -1 20 C-3.96427656 20.90416158 -6.9084807 21.11531422 -10 21 C-12.5625 19.5625 -12.5625 19.5625 -14 18 C-13.67 17.34 -13.34 16.68 -13 16 C-10.03 16.33 -7.06 16.66 -4 17 C-4 15.68 -4 14.36 -4 13 C-5.11375 12.54625 -6.2275 12.0925 -7.375 11.625 C-11 10 -11 10 -13 8 C-13.5022103 4.81933477 -13.23845283 3.39396554 -11.5625 0.625 C-7.69931361 -1.82482552 -4.34143959 -0.85344539 0 0 Z " fill="#5F5F5F" transform="translate(605,720)"/>
<path d="M0 0 C2.1875 0 2.1875 0 5 1 C6.98952169 3.54336151 8.42284913 6.16112843 10 9 C11.65 6.03 13.3 3.06 15 0 C16.32 0 17.64 0 19 0 C17.90063163 3.02326302 16.69639262 5.4692114 14.9375 8.1875 C12.3531385 12.52999591 12.19952939 17.04169469 12 22 C10.35 22 8.7 22 7 22 C6.99742187 21.39414062 6.99484375 20.78828125 6.9921875 20.1640625 C6.68946116 13.60499176 4.92983971 9.46272635 1.27734375 4.03125 C0 2 0 2 0 0 Z " fill="#636363" transform="translate(530,719)"/>
<path d="M0 0 C5.94 0 11.88 0 18 0 C18 0.99 18 1.98 18 3 C15.69 3 13.38 3 11 3 C11 9.27 11 15.54 11 22 C9.68 22 8.36 22 7 22 C7 15.73 7 9.46 7 3 C4.69 3 2.38 3 0 3 C0 2.01 0 1.02 0 0 Z " fill="#555555" transform="translate(688,719)"/>
<path d="M0 0 C1.32 0 2.64 0 4 0 C4 7.26 4 14.52 4 22 C2.68 22 1.36 22 0 22 C0 14.74 0 7.48 0 0 Z " fill="#565656" transform="translate(664,719)"/>
<path d="M0 0 C2.875 -0.125 2.875 -0.125 6 0 C6.66 0.66 7.32 1.32 8 2 C7.44444444 6.55555556 7.44444444 6.55555556 6 8 C4.00041636 8.04080783 1.99954746 8.04254356 0 8 C0 5.36 0 2.72 0 0 Z " fill="#F1F1F1" transform="translate(631,722)"/>
<path d="M0 0 C8.00945568 -0.30372936 14.69065285 -0.50848663 22 3 C21.67 3.99 21.34 4.98 21 6 C20.443125 5.7834375 19.88625 5.566875 19.3125 5.34375 C12.25872986 2.77007711 6.41078866 2.14730284 -1 4 C-0.67 2.68 -0.34 1.36 0 0 Z " fill="#4D4D4D" transform="translate(555,610)"/>
<path d="M0 0 C8.00945568 -0.30372936 14.69065285 -0.50848663 22 3 C21.67 3.99 21.34 4.98 21 6 C20.443125 5.7834375 19.88625 5.566875 19.3125 5.34375 C12.25872986 2.77007711 6.41078866 2.14730284 -1 4 C-0.67 2.68 -0.34 1.36 0 0 Z " fill="#4D4D4D" transform="translate(555,505)"/>
<path d="M0 0 C2.33294775 -0.04241723 4.66702567 -0.04092937 7 0 C8 1 8 1 8.125 3.5 C8 6 8 6 7 7 C4.66702567 7.04092937 2.33294775 7.04241723 0 7 C0 4.69 0 2.38 0 0 Z " fill="#F7F7F7" transform="translate(499,731)"/>
<path d="M0 0 C0 0.99 0 1.98 0 3 C-7.77729519 6.21819111 -14.64259099 6.32098157 -23 6 C-19.62248392 2.91080846 -17.1347313 2.60043901 -12.625 2.4375 C-8.02984803 2.25993558 -4.3137607 1.62254745 0 0 Z " fill="#646464" transform="translate(577,685)"/>
<path d="M0 0 C0 0.99 0 1.98 0 3 C-7.77729519 6.21819111 -14.64259099 6.32098157 -23 6 C-19.62248392 2.91080846 -17.1347313 2.60043901 -12.625 2.4375 C-8.02984803 2.25993558 -4.3137607 1.62254745 0 0 Z " fill="#646464" transform="translate(577,580)"/>
<path d="M0 0 C5.75 -0.125 5.75 -0.125 8 1 C8 2.32 8 3.64 8 5 C5.29120665 6.35439668 2.99066732 6.06501451 0 6 C0 4.02 0 2.04 0 0 Z " fill="#F2F2F2" transform="translate(499,722)"/>
<path d="M0 0 C0.99 0 1.98 0 3 0 C3.33 3.3 3.66 6.6 4 10 C6.31 7.36 8.62 4.72 11 2 C11.66 2.33 12.32 2.66 13 3 C13 3.66 13 4.32 13 5 C11.34211215 6.34423339 9.67423683 7.67618483 8 9 C7.46375 9.7425 6.9275 10.485 6.375 11.25 C5.92125 11.8275 5.4675 12.405 5 13 C4.01 13 3.02 13 2 13 C2 9.04 2 5.08 2 1 C1.34 0.67 0.68 0.34 0 0 Z " fill="#636363" transform="translate(862,526)"/>
<path d="M0 0 C7.84540858 -0.64897681 12.78476975 0.01356885 19 5 C18.34 5.66 17.68 6.32 17 7 C16.47921875 6.53980469 15.9584375 6.07960938 15.421875 5.60546875 C12.42250827 3.61717887 9.76286647 3.05020196 6.25 2.3125 C5.07953125 2.06113281 3.9090625 1.80976562 2.703125 1.55078125 C1.36507812 1.27814453 1.36507812 1.27814453 0 1 C0 0.67 0 0.34 0 0 Z " fill="#565656" transform="translate(915,526)"/>
<path d="M0 0 C0.66 0.33 1.32 0.66 2 1 C0.65949051 5.02152847 -1.51929173 5.70273254 -5 8 C-6.83300909 10.10575643 -6.83300909 10.10575643 -8 12 C-8.66 11.67 -9.32 11.34 -10 11 C-7.17477391 6.32751069 -4.32239956 3.34003602 0 0 Z " fill="#4E4E4E" transform="translate(759,632)"/>
<path d="M0 0 C0.66 0.33 1.32 0.66 2 1 C0.65949051 5.02152847 -1.51929173 5.70273254 -5 8 C-6.83300909 10.10575643 -6.83300909 10.10575643 -8 12 C-8.66 11.67 -9.32 11.34 -10 11 C-7.17477391 6.32751069 -4.32239956 3.34003602 0 0 Z " fill="#4E4E4E" transform="translate(692,632)"/>
<path d="M0 0 C0.66 0.33 1.32 0.66 2 1 C0.65949051 5.02152847 -1.51929173 5.70273254 -5 8 C-6.83300909 10.10575643 -6.83300909 10.10575643 -8 12 C-8.66 11.67 -9.32 11.34 -10 11 C-7.17477391 6.32751069 -4.32239956 3.34003602 0 0 Z " fill="#4E4E4E" transform="translate(692,527)"/>
<path d="M0 0 C0.99 0.33 1.98 0.66 3 1 C2.07038578 2.15224028 1.1309875 3.29659176 0.1875 4.4375 C-0.59560547 5.39462891 -0.59560547 5.39462891 -1.39453125 6.37109375 C-3 8 -3 8 -6 9 C-6 8.34 -6 7.68 -6 7 C-6.66 6.67 -7.32 6.34 -8 6 C-7.05125 5.566875 -6.1025 5.13375 -5.125 4.6875 C-1.79958063 3.20697799 -1.79958063 3.20697799 0 0 Z " fill="#545454" transform="translate(932,576)"/>
<path d="M0 0 C1.98 0 3.96 0 6 0 C4 3 4 3 1.375 3.6875 C0.199375 3.8421875 0.199375 3.8421875 -1 4 C-0.67 2.68 -0.34 1.36 0 0 Z " fill="#595959" transform="translate(555,610)"/>
<path d="M0 0 C1.98 0 3.96 0 6 0 C4 3 4 3 1.375 3.6875 C0.199375 3.8421875 0.199375 3.8421875 -1 4 C-0.67 2.68 -0.34 1.36 0 0 Z " fill="#595959" transform="translate(555,505)"/>
</svg>
